G04 This is an RS-274x file exported by *
G04 gerbv version 2.6.1 *
G04 More information is available about gerbv at *
G04 http://gerbv.geda-project.org/ *
G04 --End of header info--*
%MOIN*%
%FSLAX34Y34*%
%IPPOS*%
G04 --Define apertures--*
%ADD10C,0.0098*%
%ADD11C,0.0046*%
%ADD12C,0.0062*%
%ADD13C,0.0077*%
G04 --Start main section--*
G54D10*
G01X0005818Y0014601D02*
G01X0005306Y0014601D01*
G01X0005805Y0007611D02*
G01X0005569Y0007611D01*
G01X0005687Y0007729D02*
G01X0005687Y0007493D01*
G01X0004687Y0006312D02*
G01X0004689Y0006381D01*
G01X0004689Y0006381D02*
G01X0004697Y0006451D01*
G01X0004697Y0006451D02*
G01X0004709Y0006520D01*
G01X0004709Y0006520D02*
G01X0004726Y0006587D01*
G01X0004726Y0006587D02*
G01X0004747Y0006654D01*
G01X0004747Y0006654D02*
G01X0004773Y0006718D01*
G01X0004773Y0006718D02*
G01X0004804Y0006781D01*
G01X0004804Y0006781D02*
G01X0004839Y0006841D01*
G01X0004839Y0006841D02*
G01X0004878Y0006899D01*
G01X0004878Y0006899D02*
G01X0004921Y0006954D01*
G01X0004921Y0006954D02*
G01X0004968Y0007006D01*
G01X0004968Y0007006D02*
G01X0005018Y0007055D01*
G01X0005018Y0007055D02*
G01X0005071Y0007099D01*
G01X0005071Y0007099D02*
G01X0005128Y0007140D01*
G01X0005128Y0007140D02*
G01X0005187Y0007177D01*
G01X0005187Y0007177D02*
G01X0005249Y0007210D01*
G01X0005249Y0007210D02*
G01X0005312Y0007239D01*
G01X0005312Y0007239D02*
G01X0005378Y0007262D01*
G01X0005378Y0007262D02*
G01X0005445Y0007282D01*
G01X0005445Y0007282D02*
G01X0005513Y0007296D01*
G01X0005513Y0007296D02*
G01X0005582Y0007306D01*
G01X0005582Y0007306D02*
G01X0005652Y0007311D01*
G01X0005652Y0007311D02*
G01X0005722Y0007311D01*
G01X0005722Y0007311D02*
G01X0005791Y0007306D01*
G01X0005791Y0007306D02*
G01X0005861Y0007296D01*
G01X0005861Y0007296D02*
G01X0005929Y0007282D01*
G01X0005929Y0007282D02*
G01X0005996Y0007262D01*
G01X0005996Y0007262D02*
G01X0006062Y0007239D01*
G01X0006062Y0007239D02*
G01X0006125Y0007210D01*
G01X0006125Y0007210D02*
G01X0006187Y0007177D01*
G01X0006187Y0007177D02*
G01X0006246Y0007140D01*
G01X0006246Y0007140D02*
G01X0006303Y0007099D01*
G01X0006303Y0007099D02*
G01X0006356Y0007055D01*
G01X0006356Y0007055D02*
G01X0006406Y0007006D01*
G01X0006406Y0007006D02*
G01X0006453Y0006954D01*
G01X0006453Y0006954D02*
G01X0006496Y0006899D01*
G01X0006496Y0006899D02*
G01X0006535Y0006841D01*
G01X0006535Y0006841D02*
G01X0006570Y0006781D01*
G01X0006570Y0006781D02*
G01X0006600Y0006718D01*
G01X0006600Y0006718D02*
G01X0006627Y0006654D01*
G01X0006627Y0006654D02*
G01X0006648Y0006587D01*
G01X0006648Y0006587D02*
G01X0006665Y0006520D01*
G01X0006665Y0006520D02*
G01X0006677Y0006451D01*
G01X0006677Y0006451D02*
G01X0006684Y0006381D01*
G01X0006684Y0006381D02*
G01X0006687Y0006312D01*
G01X0006687Y0006312D02*
G01X0006684Y0006242D01*
G01X0006684Y0006242D02*
G01X0006677Y0006173D01*
G01X0006677Y0006173D02*
G01X0006665Y0006104D01*
G01X0006665Y0006104D02*
G01X0006648Y0006036D01*
G01X0006648Y0006036D02*
G01X0006627Y0005970D01*
G01X0006627Y0005970D02*
G01X0006600Y0005905D01*
G01X0006600Y0005905D02*
G01X0006570Y0005842D01*
G01X0006570Y0005842D02*
G01X0006535Y0005782D01*
G01X0006535Y0005782D02*
G01X0006496Y0005724D01*
G01X0006496Y0005724D02*
G01X0006453Y0005669D01*
G01X0006453Y0005669D02*
G01X0006406Y0005617D01*
G01X0006406Y0005617D02*
G01X0006356Y0005569D01*
G01X0006356Y0005569D02*
G01X0006303Y0005524D01*
G01X0006303Y0005524D02*
G01X0006246Y0005483D01*
G01X0006246Y0005483D02*
G01X0006187Y0005446D01*
G01X0006187Y0005446D02*
G01X0006125Y0005413D01*
G01X0006125Y0005413D02*
G01X0006062Y0005385D01*
G01X0006062Y0005385D02*
G01X0005996Y0005361D01*
G01X0005996Y0005361D02*
G01X0005929Y0005342D01*
G01X0005929Y0005342D02*
G01X0005861Y0005327D01*
G01X0005861Y0005327D02*
G01X0005791Y0005318D01*
G01X0005791Y0005318D02*
G01X0005722Y0005313D01*
G01X0005722Y0005313D02*
G01X0005652Y0005313D01*
G01X0005652Y0005313D02*
G01X0005582Y0005318D01*
G01X0005582Y0005318D02*
G01X0005513Y0005327D01*
G01X0005513Y0005327D02*
G01X0005445Y0005342D01*
G01X0005445Y0005342D02*
G01X0005378Y0005361D01*
G01X0005378Y0005361D02*
G01X0005312Y0005385D01*
G01X0005312Y0005385D02*
G01X0005249Y0005413D01*
G01X0005249Y0005413D02*
G01X0005187Y0005446D01*
G01X0005187Y0005446D02*
G01X0005128Y0005483D01*
G01X0005128Y0005483D02*
G01X0005071Y0005524D01*
G01X0005071Y0005524D02*
G01X0005018Y0005569D01*
G01X0005018Y0005569D02*
G01X0004968Y0005617D01*
G01X0004968Y0005617D02*
G01X0004921Y0005669D01*
G01X0004921Y0005669D02*
G01X0004878Y0005724D01*
G01X0004878Y0005724D02*
G01X0004839Y0005782D01*
G01X0004839Y0005782D02*
G01X0004804Y0005842D01*
G01X0004804Y0005842D02*
G01X0004773Y0005905D01*
G01X0004773Y0005905D02*
G01X0004747Y0005970D01*
G01X0004747Y0005970D02*
G01X0004726Y0006036D01*
G01X0004726Y0006036D02*
G01X0004709Y0006104D01*
G01X0004709Y0006104D02*
G01X0004697Y0006173D01*
G01X0004697Y0006173D02*
G01X0004689Y0006242D01*
G01X0004689Y0006242D02*
G01X0004687Y0006312D01*
G01X0019982Y0013914D02*
G01X0007232Y0013914D01*
G01X0007232Y0013914D02*
G01X0007232Y0008164D01*
G01X0007232Y0008164D02*
G01X0019982Y0008164D01*
G01X0019982Y0008164D02*
G01X0019982Y0013914D01*
G01X0020125Y0015562D02*
G01X0007124Y0015562D01*
G01X0007124Y0015562D02*
G01X0007124Y0014562D01*
G01X0007124Y0014562D02*
G01X0020125Y0014562D01*
G01X0020125Y0014562D02*
G01X0020125Y0015562D01*
G54D11*
G01X0004899Y0013867D02*
G01X0004870Y0013881D01*
G01X0004870Y0013881D02*
G01X0004842Y0013910D01*
G01X0004842Y0013910D02*
G01X0004827Y0013938D01*
G01X0004827Y0013938D02*
G01X0004827Y0013996D01*
G01X0004827Y0013996D02*
G01X0004842Y0014024D01*
G01X0004842Y0014024D02*
G01X0004870Y0014053D01*
G01X0004870Y0014053D02*
G01X0004899Y0014067D01*
G01X0004899Y0014067D02*
G01X0004942Y0014082D01*
G01X0004942Y0014082D02*
G01X0005014Y0014082D01*
G01X0005014Y0014082D02*
G01X0005057Y0014067D01*
G01X0005057Y0014067D02*
G01X0005086Y0014053D01*
G01X0005086Y0014053D02*
G01X0005114Y0014024D01*
G01X0005114Y0014024D02*
G01X0005129Y0013996D01*
G01X0005129Y0013996D02*
G01X0005129Y0013938D01*
G01X0005129Y0013938D02*
G01X0005114Y0013910D01*
G01X0005114Y0013910D02*
G01X0005086Y0013881D01*
G01X0005086Y0013881D02*
G01X0005057Y0013867D01*
G01X0004885Y0013774D02*
G01X0004870Y0013745D01*
G01X0004870Y0013745D02*
G01X0004828Y0013702D01*
G01X0004828Y0013702D02*
G01X0005129Y0013702D01*
G01X0005726Y0005139D02*
G01X0005740Y0005167D01*
G01X0005740Y0005167D02*
G01X0005769Y0005196D01*
G01X0005769Y0005196D02*
G01X0005798Y0005210D01*
G01X0005798Y0005210D02*
G01X0005855Y0005210D01*
G01X0005855Y0005210D02*
G01X0005884Y0005196D01*
G01X0005884Y0005196D02*
G01X0005912Y0005167D01*
G01X0005912Y0005167D02*
G01X0005927Y0005139D01*
G01X0005927Y0005139D02*
G01X0005941Y0005096D01*
G01X0005941Y0005096D02*
G01X0005941Y0005024D01*
G01X0005941Y0005024D02*
G01X0005927Y0004981D01*
G01X0005927Y0004981D02*
G01X0005912Y0004952D01*
G01X0005912Y0004952D02*
G01X0005884Y0004923D01*
G01X0005884Y0004923D02*
G01X0005855Y0004909D01*
G01X0005855Y0004909D02*
G01X0005798Y0004909D01*
G01X0005798Y0004909D02*
G01X0005769Y0004923D01*
G01X0005769Y0004923D02*
G01X0005740Y0004952D01*
G01X0005740Y0004952D02*
G01X0005726Y0004981D01*
G01X0005619Y0005138D02*
G01X0005619Y0005153D01*
G01X0005619Y0005153D02*
G01X0005605Y0005181D01*
G01X0005605Y0005181D02*
G01X0005590Y0005196D01*
G01X0005590Y0005196D02*
G01X0005561Y0005210D01*
G01X0005561Y0005210D02*
G01X0005504Y0005210D01*
G01X0005504Y0005210D02*
G01X0005476Y0005196D01*
G01X0005476Y0005196D02*
G01X0005461Y0005181D01*
G01X0005461Y0005181D02*
G01X0005447Y0005153D01*
G01X0005447Y0005153D02*
G01X0005447Y0005124D01*
G01X0005447Y0005124D02*
G01X0005461Y0005095D01*
G01X0005461Y0005095D02*
G01X0005490Y0005052D01*
G01X0005490Y0005052D02*
G01X0005633Y0004909D01*
G01X0005633Y0004909D02*
G01X0005432Y0004909D01*
G54D12*
G01X0022402Y0011851D02*
G01X0022421Y0011851D01*
G01X0022421Y0011851D02*
G01X0022459Y0011870D01*
G01X0022459Y0011870D02*
G01X0022478Y0011889D01*
G01X0022478Y0011889D02*
G01X0022497Y0011928D01*
G01X0022497Y0011928D02*
G01X0022497Y0012004D01*
G01X0022497Y0012004D02*
G01X0022478Y0012042D01*
G01X0022478Y0012042D02*
G01X0022459Y0012061D01*
G01X0022459Y0012061D02*
G01X0022421Y0012081D01*
G01X0022421Y0012081D02*
G01X0022383Y0012081D01*
G01X0022383Y0012081D02*
G01X0022344Y0012061D01*
G01X0022344Y0012061D02*
G01X0022287Y0012023D01*
G01X0022287Y0012023D02*
G01X0022096Y0011832D01*
G01X0022096Y0011832D02*
G01X0022096Y0012100D01*
G01X0022497Y0012338D02*
G01X0022478Y0012281D01*
G01X0022478Y0012281D02*
G01X0022421Y0012242D01*
G01X0022421Y0012242D02*
G01X0022325Y0012223D01*
G01X0022325Y0012223D02*
G01X0022268Y0012223D01*
G01X0022268Y0012223D02*
G01X0022172Y0012242D01*
G01X0022172Y0012242D02*
G01X0022115Y0012281D01*
G01X0022115Y0012281D02*
G01X0022096Y0012338D01*
G01X0022096Y0012338D02*
G01X0022096Y0012376D01*
G01X0022096Y0012376D02*
G01X0022115Y0012434D01*
G01X0022115Y0012434D02*
G01X0022172Y0012472D01*
G01X0022172Y0012472D02*
G01X0022268Y0012491D01*
G01X0022268Y0012491D02*
G01X0022325Y0012491D01*
G01X0022325Y0012491D02*
G01X0022421Y0012472D01*
G01X0022421Y0012472D02*
G01X0022478Y0012434D01*
G01X0022478Y0012434D02*
G01X0022497Y0012376D01*
G01X0022497Y0012376D02*
G01X0022497Y0012338D01*
G01X0022421Y0012472D02*
G01X0022172Y0012242D01*
G01X0022402Y0012634D02*
G01X0022421Y0012634D01*
G01X0022421Y0012634D02*
G01X0022459Y0012653D01*
G01X0022459Y0012653D02*
G01X0022478Y0012672D01*
G01X0022478Y0012672D02*
G01X0022497Y0012710D01*
G01X0022497Y0012710D02*
G01X0022497Y0012787D01*
G01X0022497Y0012787D02*
G01X0022478Y0012825D01*
G01X0022478Y0012825D02*
G01X0022459Y0012844D01*
G01X0022459Y0012844D02*
G01X0022421Y0012863D01*
G01X0022421Y0012863D02*
G01X0022383Y0012863D01*
G01X0022383Y0012863D02*
G01X0022344Y0012844D01*
G01X0022344Y0012844D02*
G01X0022287Y0012806D01*
G01X0022287Y0012806D02*
G01X0022096Y0012615D01*
G01X0022096Y0012615D02*
G01X0022096Y0012882D01*
G01X0022421Y0013006D02*
G01X0022440Y0013044D01*
G01X0022440Y0013044D02*
G01X0022497Y0013102D01*
G01X0022497Y0013102D02*
G01X0022096Y0013102D01*
G01X0022297Y0013225D02*
G01X0022297Y0013447D01*
G01X0022497Y0013685D02*
G01X0022478Y0013628D01*
G01X0022478Y0013628D02*
G01X0022421Y0013589D01*
G01X0022421Y0013589D02*
G01X0022325Y0013570D01*
G01X0022325Y0013570D02*
G01X0022268Y0013570D01*
G01X0022268Y0013570D02*
G01X0022172Y0013589D01*
G01X0022172Y0013589D02*
G01X0022115Y0013628D01*
G01X0022115Y0013628D02*
G01X0022096Y0013685D01*
G01X0022096Y0013685D02*
G01X0022096Y0013723D01*
G01X0022096Y0013723D02*
G01X0022115Y0013780D01*
G01X0022115Y0013780D02*
G01X0022172Y0013819D01*
G01X0022172Y0013819D02*
G01X0022268Y0013838D01*
G01X0022268Y0013838D02*
G01X0022325Y0013838D01*
G01X0022325Y0013838D02*
G01X0022421Y0013819D01*
G01X0022421Y0013819D02*
G01X0022478Y0013780D01*
G01X0022478Y0013780D02*
G01X0022497Y0013723D01*
G01X0022497Y0013723D02*
G01X0022497Y0013685D01*
G01X0022421Y0013819D02*
G01X0022172Y0013589D01*
G01X0022096Y0014038D02*
G01X0022497Y0014229D01*
G01X0022497Y0014229D02*
G01X0022497Y0013961D01*
G01X0022297Y0014353D02*
G01X0022297Y0014574D01*
G01X0022402Y0014717D02*
G01X0022421Y0014717D01*
G01X0022421Y0014717D02*
G01X0022459Y0014736D01*
G01X0022459Y0014736D02*
G01X0022478Y0014755D01*
G01X0022478Y0014755D02*
G01X0022497Y0014793D01*
G01X0022497Y0014793D02*
G01X0022497Y0014870D01*
G01X0022497Y0014870D02*
G01X0022478Y0014908D01*
G01X0022478Y0014908D02*
G01X0022459Y0014927D01*
G01X0022459Y0014927D02*
G01X0022421Y0014946D01*
G01X0022421Y0014946D02*
G01X0022383Y0014946D01*
G01X0022383Y0014946D02*
G01X0022344Y0014927D01*
G01X0022344Y0014927D02*
G01X0022287Y0014889D01*
G01X0022287Y0014889D02*
G01X0022096Y0014698D01*
G01X0022096Y0014698D02*
G01X0022096Y0014965D01*
G01X0022421Y0015089D02*
G01X0022440Y0015127D01*
G01X0022440Y0015127D02*
G01X0022497Y0015185D01*
G01X0022497Y0015185D02*
G01X0022096Y0015185D01*
G01X0022712Y0009924D02*
G01X0022310Y0009924D01*
G01X0022520Y0009924D02*
G01X0022559Y0009962D01*
G01X0022559Y0009962D02*
G01X0022578Y0010000D01*
G01X0022578Y0010000D02*
G01X0022578Y0010058D01*
G01X0022578Y0010058D02*
G01X0022559Y0010096D01*
G01X0022559Y0010096D02*
G01X0022520Y0010134D01*
G01X0022520Y0010134D02*
G01X0022463Y0010153D01*
G01X0022463Y0010153D02*
G01X0022425Y0010153D01*
G01X0022425Y0010153D02*
G01X0022367Y0010134D01*
G01X0022367Y0010134D02*
G01X0022329Y0010096D01*
G01X0022329Y0010096D02*
G01X0022310Y0010058D01*
G01X0022310Y0010058D02*
G01X0022310Y0010000D01*
G01X0022310Y0010000D02*
G01X0022329Y0009962D01*
G01X0022329Y0009962D02*
G01X0022367Y0009924D01*
G01X0022578Y0010296D02*
G01X0022310Y0010411D01*
G01X0022310Y0010411D02*
G01X0022233Y0010373D01*
G01X0022233Y0010373D02*
G01X0022195Y0010334D01*
G01X0022195Y0010334D02*
G01X0022176Y0010296D01*
G01X0022176Y0010296D02*
G01X0022176Y0010277D01*
G01X0022578Y0010526D02*
G01X0022310Y0010411D01*
G54D13*
G01X0022474Y0007531D02*
G01X0022521Y0007579D01*
G01X0022521Y0007579D02*
G01X0022593Y0007603D01*
G01X0022593Y0007603D02*
G01X0022689Y0007603D01*
G01X0022689Y0007603D02*
G01X0022761Y0007579D01*
G01X0022761Y0007579D02*
G01X0022809Y0007531D01*
G01X0022809Y0007531D02*
G01X0022809Y0007484D01*
G01X0022809Y0007484D02*
G01X0022784Y0007436D01*
G01X0022784Y0007436D02*
G01X0022761Y0007412D01*
G01X0022761Y0007412D02*
G01X0022713Y0007388D01*
G01X0022713Y0007388D02*
G01X0022569Y0007340D01*
G01X0022569Y0007340D02*
G01X0022521Y0007316D01*
G01X0022521Y0007316D02*
G01X0022498Y0007292D01*
G01X0022498Y0007292D02*
G01X0022474Y0007244D01*
G01X0022474Y0007244D02*
G01X0022474Y0007173D01*
G01X0022474Y0007173D02*
G01X0022521Y0007125D01*
G01X0022521Y0007125D02*
G01X0022593Y0007101D01*
G01X0022593Y0007101D02*
G01X0022689Y0007101D01*
G01X0022689Y0007101D02*
G01X0022761Y0007125D01*
G01X0022761Y0007125D02*
G01X0022809Y0007173D01*
G01X0022319Y0007603D02*
G01X0022319Y0007101D01*
G01X0022021Y0007603D02*
G01X0022069Y0007579D01*
G01X0022069Y0007579D02*
G01X0022117Y0007531D01*
G01X0022117Y0007531D02*
G01X0022141Y0007484D01*
G01X0022141Y0007484D02*
G01X0022165Y0007412D01*
G01X0022165Y0007412D02*
G01X0022165Y0007292D01*
G01X0022165Y0007292D02*
G01X0022141Y0007221D01*
G01X0022141Y0007221D02*
G01X0022117Y0007173D01*
G01X0022117Y0007173D02*
G01X0022069Y0007125D01*
G01X0022069Y0007125D02*
G01X0022021Y0007101D01*
G01X0022021Y0007101D02*
G01X0021926Y0007101D01*
G01X0021926Y0007101D02*
G01X0021878Y0007125D01*
G01X0021878Y0007125D02*
G01X0021830Y0007173D01*
G01X0021830Y0007173D02*
G01X0021806Y0007221D01*
G01X0021806Y0007221D02*
G01X0021783Y0007292D01*
G01X0021783Y0007292D02*
G01X0021783Y0007412D01*
G01X0021783Y0007412D02*
G01X0021806Y0007484D01*
G01X0021806Y0007484D02*
G01X0021830Y0007531D01*
G01X0021830Y0007531D02*
G01X0021878Y0007579D01*
G01X0021878Y0007579D02*
G01X0021926Y0007603D01*
G01X0021926Y0007603D02*
G01X0022021Y0007603D01*
G01X0021142Y0007340D02*
G01X0020927Y0007340D01*
G01X0020927Y0007340D02*
G01X0020855Y0007364D01*
G01X0020855Y0007364D02*
G01X0020831Y0007388D01*
G01X0020831Y0007388D02*
G01X0020807Y0007436D01*
G01X0020807Y0007436D02*
G01X0020807Y0007508D01*
G01X0020807Y0007508D02*
G01X0020831Y0007555D01*
G01X0020831Y0007555D02*
G01X0020855Y0007579D01*
G01X0020855Y0007579D02*
G01X0020927Y0007603D01*
G01X0020927Y0007603D02*
G01X0021142Y0007603D01*
G01X0021142Y0007603D02*
G01X0021142Y0007101D01*
G01X0020366Y0007436D02*
G01X0020366Y0007101D01*
G01X0020366Y0007364D02*
G01X0020414Y0007412D01*
G01X0020414Y0007412D02*
G01X0020462Y0007436D01*
G01X0020462Y0007436D02*
G01X0020533Y0007436D01*
G01X0020533Y0007436D02*
G01X0020581Y0007412D01*
G01X0020581Y0007412D02*
G01X0020629Y0007364D01*
G01X0020629Y0007364D02*
G01X0020653Y0007292D01*
G01X0020653Y0007292D02*
G01X0020653Y0007244D01*
G01X0020653Y0007244D02*
G01X0020629Y0007173D01*
G01X0020629Y0007173D02*
G01X0020581Y0007125D01*
G01X0020581Y0007125D02*
G01X0020533Y0007101D01*
G01X0020533Y0007101D02*
G01X0020462Y0007101D01*
G01X0020462Y0007101D02*
G01X0020414Y0007125D01*
G01X0020414Y0007125D02*
G01X0020366Y0007173D01*
G01X0019949Y0007364D02*
G01X0019972Y0007412D01*
G01X0019972Y0007412D02*
G01X0020044Y0007436D01*
G01X0020044Y0007436D02*
G01X0020116Y0007436D01*
G01X0020116Y0007436D02*
G01X0020188Y0007412D01*
G01X0020188Y0007412D02*
G01X0020212Y0007364D01*
G01X0020212Y0007364D02*
G01X0020188Y0007316D01*
G01X0020188Y0007316D02*
G01X0020140Y0007292D01*
G01X0020140Y0007292D02*
G01X0020020Y0007268D01*
G01X0020020Y0007268D02*
G01X0019972Y0007244D01*
G01X0019972Y0007244D02*
G01X0019949Y0007196D01*
G01X0019949Y0007196D02*
G01X0019949Y0007173D01*
G01X0019949Y0007173D02*
G01X0019972Y0007125D01*
G01X0019972Y0007125D02*
G01X0020044Y0007101D01*
G01X0020044Y0007101D02*
G01X0020116Y0007101D01*
G01X0020116Y0007101D02*
G01X0020188Y0007125D01*
G01X0020188Y0007125D02*
G01X0020212Y0007173D01*
G01X0019531Y0007364D02*
G01X0019555Y0007412D01*
G01X0019555Y0007412D02*
G01X0019627Y0007436D01*
G01X0019627Y0007436D02*
G01X0019699Y0007436D01*
G01X0019699Y0007436D02*
G01X0019770Y0007412D01*
G01X0019770Y0007412D02*
G01X0019794Y0007364D01*
G01X0019794Y0007364D02*
G01X0019770Y0007316D01*
G01X0019770Y0007316D02*
G01X0019722Y0007292D01*
G01X0019722Y0007292D02*
G01X0019603Y0007268D01*
G01X0019603Y0007268D02*
G01X0019555Y0007244D01*
G01X0019555Y0007244D02*
G01X0019531Y0007196D01*
G01X0019531Y0007196D02*
G01X0019531Y0007173D01*
G01X0019531Y0007173D02*
G01X0019555Y0007125D01*
G01X0019555Y0007125D02*
G01X0019627Y0007101D01*
G01X0019627Y0007101D02*
G01X0019699Y0007101D01*
G01X0019699Y0007101D02*
G01X0019770Y0007125D01*
G01X0019770Y0007125D02*
G01X0019794Y0007173D01*
G01X0019377Y0007352D02*
G01X0019100Y0007352D01*
G01X0022646Y0006844D02*
G01X0022646Y0006342D01*
G01X0022813Y0006844D02*
G01X0022478Y0006844D01*
G01X0022324Y0006844D02*
G01X0022324Y0006342D01*
G01X0022324Y0006581D02*
G01X0022252Y0006653D01*
G01X0022252Y0006653D02*
G01X0022204Y0006676D01*
G01X0022204Y0006676D02*
G01X0022132Y0006676D01*
G01X0022132Y0006676D02*
G01X0022084Y0006653D01*
G01X0022084Y0006653D02*
G01X0022061Y0006581D01*
G01X0022061Y0006581D02*
G01X0022061Y0006342D01*
G01X0021906Y0006676D02*
G01X0021906Y0006342D01*
G01X0021906Y0006533D02*
G01X0021882Y0006605D01*
G01X0021882Y0006605D02*
G01X0021834Y0006653D01*
G01X0021834Y0006653D02*
G01X0021786Y0006676D01*
G01X0021786Y0006676D02*
G01X0021714Y0006676D01*
G01X0021441Y0006676D02*
G01X0021488Y0006653D01*
G01X0021488Y0006653D02*
G01X0021536Y0006605D01*
G01X0021536Y0006605D02*
G01X0021560Y0006533D01*
G01X0021560Y0006533D02*
G01X0021560Y0006485D01*
G01X0021560Y0006485D02*
G01X0021536Y0006413D01*
G01X0021536Y0006413D02*
G01X0021488Y0006366D01*
G01X0021488Y0006366D02*
G01X0021441Y0006342D01*
G01X0021441Y0006342D02*
G01X0021369Y0006342D01*
G01X0021369Y0006342D02*
G01X0021321Y0006366D01*
G01X0021321Y0006366D02*
G01X0021273Y0006413D01*
G01X0021273Y0006413D02*
G01X0021249Y0006485D01*
G01X0021249Y0006485D02*
G01X0021249Y0006533D01*
G01X0021249Y0006533D02*
G01X0021273Y0006605D01*
G01X0021273Y0006605D02*
G01X0021321Y0006653D01*
G01X0021321Y0006653D02*
G01X0021369Y0006676D01*
G01X0021369Y0006676D02*
G01X0021441Y0006676D01*
G01X0021095Y0006676D02*
G01X0021095Y0006437D01*
G01X0021095Y0006437D02*
G01X0021071Y0006366D01*
G01X0021071Y0006366D02*
G01X0021023Y0006342D01*
G01X0021023Y0006342D02*
G01X0020951Y0006342D01*
G01X0020951Y0006342D02*
G01X0020903Y0006366D01*
G01X0020903Y0006366D02*
G01X0020831Y0006437D01*
G01X0020831Y0006676D02*
G01X0020831Y0006342D01*
G01X0020390Y0006653D02*
G01X0020390Y0006270D01*
G01X0020390Y0006270D02*
G01X0020414Y0006198D01*
G01X0020414Y0006198D02*
G01X0020438Y0006174D01*
G01X0020438Y0006174D02*
G01X0020486Y0006150D01*
G01X0020486Y0006150D02*
G01X0020558Y0006150D01*
G01X0020558Y0006150D02*
G01X0020605Y0006174D01*
G01X0020390Y0006581D02*
G01X0020438Y0006628D01*
G01X0020438Y0006628D02*
G01X0020486Y0006653D01*
G01X0020486Y0006653D02*
G01X0020558Y0006653D01*
G01X0020558Y0006653D02*
G01X0020605Y0006628D01*
G01X0020605Y0006628D02*
G01X0020653Y0006581D01*
G01X0020653Y0006581D02*
G01X0020677Y0006509D01*
G01X0020677Y0006509D02*
G01X0020677Y0006461D01*
G01X0020677Y0006461D02*
G01X0020653Y0006390D01*
G01X0020653Y0006390D02*
G01X0020605Y0006342D01*
G01X0020605Y0006342D02*
G01X0020558Y0006318D01*
G01X0020558Y0006318D02*
G01X0020486Y0006318D01*
G01X0020486Y0006318D02*
G01X0020438Y0006342D01*
G01X0020438Y0006342D02*
G01X0020390Y0006390D01*
G01X0020236Y0006844D02*
G01X0020236Y0006342D01*
G01X0020236Y0006581D02*
G01X0020164Y0006653D01*
G01X0020164Y0006653D02*
G01X0020116Y0006676D01*
G01X0020116Y0006676D02*
G01X0020044Y0006676D01*
G01X0020044Y0006676D02*
G01X0019996Y0006653D01*
G01X0019996Y0006653D02*
G01X0019973Y0006581D01*
G01X0019973Y0006581D02*
G01X0019973Y0006342D01*
G01X0022769Y0006078D02*
G01X0022769Y0005575D01*
G01X0022769Y0005575D02*
G01X0022553Y0005575D01*
G01X0022553Y0005575D02*
G01X0022481Y0005600D01*
G01X0022481Y0005600D02*
G01X0022457Y0005624D01*
G01X0022457Y0005624D02*
G01X0022434Y0005671D01*
G01X0022434Y0005671D02*
G01X0022434Y0005743D01*
G01X0022434Y0005743D02*
G01X0022457Y0005791D01*
G01X0022457Y0005791D02*
G01X0022481Y0005815D01*
G01X0022481Y0005815D02*
G01X0022553Y0005839D01*
G01X0022553Y0005839D02*
G01X0022481Y0005863D01*
G01X0022481Y0005863D02*
G01X0022457Y0005887D01*
G01X0022457Y0005887D02*
G01X0022434Y0005934D01*
G01X0022434Y0005934D02*
G01X0022434Y0005982D01*
G01X0022434Y0005982D02*
G01X0022457Y0006030D01*
G01X0022457Y0006030D02*
G01X0022481Y0006054D01*
G01X0022481Y0006054D02*
G01X0022553Y0006078D01*
G01X0022553Y0006078D02*
G01X0022769Y0006078D01*
G01X0022769Y0005839D02*
G01X0022553Y0005839D01*
G01X0022279Y0005910D02*
G01X0022279Y0005575D01*
G01X0022279Y0005767D02*
G01X0022255Y0005839D01*
G01X0022255Y0005839D02*
G01X0022207Y0005887D01*
G01X0022207Y0005887D02*
G01X0022159Y0005910D01*
G01X0022159Y0005910D02*
G01X0022088Y0005910D01*
G01X0021933Y0005767D02*
G01X0021646Y0005767D01*
G01X0021646Y0005767D02*
G01X0021646Y0005815D01*
G01X0021646Y0005815D02*
G01X0021670Y0005863D01*
G01X0021670Y0005863D02*
G01X0021694Y0005887D01*
G01X0021694Y0005887D02*
G01X0021742Y0005910D01*
G01X0021742Y0005910D02*
G01X0021814Y0005910D01*
G01X0021814Y0005910D02*
G01X0021861Y0005887D01*
G01X0021861Y0005887D02*
G01X0021909Y0005839D01*
G01X0021909Y0005839D02*
G01X0021933Y0005767D01*
G01X0021933Y0005767D02*
G01X0021933Y0005719D01*
G01X0021933Y0005719D02*
G01X0021909Y0005647D01*
G01X0021909Y0005647D02*
G01X0021861Y0005600D01*
G01X0021861Y0005600D02*
G01X0021814Y0005575D01*
G01X0021814Y0005575D02*
G01X0021742Y0005575D01*
G01X0021742Y0005575D02*
G01X0021694Y0005600D01*
G01X0021694Y0005600D02*
G01X0021646Y0005647D01*
G01X0021205Y0005910D02*
G01X0021205Y0005575D01*
G01X0021205Y0005839D02*
G01X0021253Y0005887D01*
G01X0021253Y0005887D02*
G01X0021301Y0005910D01*
G01X0021301Y0005910D02*
G01X0021372Y0005910D01*
G01X0021372Y0005910D02*
G01X0021420Y0005887D01*
G01X0021420Y0005887D02*
G01X0021468Y0005839D01*
G01X0021468Y0005839D02*
G01X0021492Y0005767D01*
G01X0021492Y0005767D02*
G01X0021492Y0005719D01*
G01X0021492Y0005719D02*
G01X0021468Y0005647D01*
G01X0021468Y0005647D02*
G01X0021420Y0005600D01*
G01X0021420Y0005600D02*
G01X0021372Y0005575D01*
G01X0021372Y0005575D02*
G01X0021301Y0005575D01*
G01X0021301Y0005575D02*
G01X0021253Y0005600D01*
G01X0021253Y0005600D02*
G01X0021205Y0005647D01*
G01X0021051Y0006078D02*
G01X0021051Y0005575D01*
G01X0020811Y0005910D02*
G01X0021051Y0005671D01*
G01X0020955Y0005767D02*
G01X0020788Y0005575D01*
G01X0020514Y0005910D02*
G01X0020561Y0005887D01*
G01X0020561Y0005887D02*
G01X0020609Y0005839D01*
G01X0020609Y0005839D02*
G01X0020633Y0005767D01*
G01X0020633Y0005767D02*
G01X0020633Y0005719D01*
G01X0020633Y0005719D02*
G01X0020609Y0005647D01*
G01X0020609Y0005647D02*
G01X0020561Y0005600D01*
G01X0020561Y0005600D02*
G01X0020514Y0005575D01*
G01X0020514Y0005575D02*
G01X0020442Y0005575D01*
G01X0020442Y0005575D02*
G01X0020394Y0005600D01*
G01X0020394Y0005600D02*
G01X0020346Y0005647D01*
G01X0020346Y0005647D02*
G01X0020322Y0005719D01*
G01X0020322Y0005719D02*
G01X0020322Y0005767D01*
G01X0020322Y0005767D02*
G01X0020346Y0005839D01*
G01X0020346Y0005839D02*
G01X0020394Y0005887D01*
G01X0020394Y0005887D02*
G01X0020442Y0005910D01*
G01X0020442Y0005910D02*
G01X0020514Y0005910D01*
G01X0020168Y0005910D02*
G01X0020168Y0005671D01*
G01X0020168Y0005671D02*
G01X0020144Y0005600D01*
G01X0020144Y0005600D02*
G01X0020096Y0005575D01*
G01X0020096Y0005575D02*
G01X0020024Y0005575D01*
G01X0020024Y0005575D02*
G01X0019976Y0005600D01*
G01X0019976Y0005600D02*
G01X0019905Y0005671D01*
G01X0019905Y0005910D02*
G01X0019905Y0005575D01*
G01X0019678Y0006078D02*
G01X0019678Y0005671D01*
G01X0019678Y0005671D02*
G01X0019655Y0005600D01*
G01X0019655Y0005600D02*
G01X0019606Y0005575D01*
G01X0019606Y0005575D02*
G01X0019559Y0005575D01*
G01X0019750Y0005910D02*
G01X0019583Y0005910D01*
G01X0022224Y0005101D02*
G01X0022080Y0004766D01*
G01X0022080Y0004766D02*
G01X0021937Y0005101D01*
G01X0021758Y0005148D02*
G01X0021758Y0005172D01*
G01X0021758Y0005172D02*
G01X0021735Y0005220D01*
G01X0021735Y0005220D02*
G01X0021711Y0005244D01*
G01X0021711Y0005244D02*
G01X0021663Y0005268D01*
G01X0021663Y0005268D02*
G01X0021567Y0005268D01*
G01X0021567Y0005268D02*
G01X0021520Y0005244D01*
G01X0021520Y0005244D02*
G01X0021496Y0005220D01*
G01X0021496Y0005220D02*
G01X0021472Y0005172D01*
G01X0021472Y0005172D02*
G01X0021472Y0005125D01*
G01X0021472Y0005125D02*
G01X0021496Y0005076D01*
G01X0021496Y0005076D02*
G01X0021543Y0005005D01*
G01X0021543Y0005005D02*
G01X0021783Y0004766D01*
G01X0021783Y0004766D02*
G01X0021448Y0004766D01*
G01X0021270Y0004814D02*
G01X0021293Y0004790D01*
G01X0021293Y0004790D02*
G01X0021270Y0004766D01*
G01X0021270Y0004766D02*
G01X0021245Y0004790D01*
G01X0021245Y0004790D02*
G01X0021270Y0004814D01*
G01X0021067Y0005148D02*
G01X0021067Y0005172D01*
G01X0021067Y0005172D02*
G01X0021043Y0005220D01*
G01X0021043Y0005220D02*
G01X0021019Y0005244D01*
G01X0021019Y0005244D02*
G01X0020971Y0005268D01*
G01X0020971Y0005268D02*
G01X0020875Y0005268D01*
G01X0020875Y0005268D02*
G01X0020828Y0005244D01*
G01X0020828Y0005244D02*
G01X0020804Y0005220D01*
G01X0020804Y0005220D02*
G01X0020780Y0005172D01*
G01X0020780Y0005172D02*
G01X0020780Y0005125D01*
G01X0020780Y0005125D02*
G01X0020804Y0005076D01*
G01X0020804Y0005076D02*
G01X0020852Y0005005D01*
G01X0020852Y0005005D02*
G01X0021091Y0004766D01*
G01X0021091Y0004766D02*
G01X0020756Y0004766D01*
G54D11*
G01X0016382Y0013269D02*
G01X0016411Y0013298D01*
G01X0016411Y0013298D02*
G01X0016454Y0013312D01*
G01X0016454Y0013312D02*
G01X0016511Y0013312D01*
G01X0016511Y0013312D02*
G01X0016554Y0013298D01*
G01X0016554Y0013298D02*
G01X0016583Y0013269D01*
G01X0016583Y0013269D02*
G01X0016583Y0013241D01*
G01X0016583Y0013241D02*
G01X0016568Y0013212D01*
G01X0016568Y0013212D02*
G01X0016554Y0013198D01*
G01X0016554Y0013198D02*
G01X0016526Y0013183D01*
G01X0016526Y0013183D02*
G01X0016439Y0013155D01*
G01X0016439Y0013155D02*
G01X0016411Y0013140D01*
G01X0016411Y0013140D02*
G01X0016396Y0013126D01*
G01X0016396Y0013126D02*
G01X0016382Y0013097D01*
G01X0016382Y0013097D02*
G01X0016382Y0013054D01*
G01X0016382Y0013054D02*
G01X0016411Y0013026D01*
G01X0016411Y0013026D02*
G01X0016454Y0013011D01*
G01X0016454Y0013011D02*
G01X0016511Y0013011D01*
G01X0016511Y0013011D02*
G01X0016554Y0013026D01*
G01X0016554Y0013026D02*
G01X0016583Y0013054D01*
G01X0016289Y0013312D02*
G01X0016289Y0013011D01*
G01X0016111Y0013312D02*
G01X0016139Y0013298D01*
G01X0016139Y0013298D02*
G01X0016168Y0013269D01*
G01X0016168Y0013269D02*
G01X0016183Y0013241D01*
G01X0016183Y0013241D02*
G01X0016197Y0013198D01*
G01X0016197Y0013198D02*
G01X0016197Y0013126D01*
G01X0016197Y0013126D02*
G01X0016183Y0013083D01*
G01X0016183Y0013083D02*
G01X0016168Y0013054D01*
G01X0016168Y0013054D02*
G01X0016139Y0013026D01*
G01X0016139Y0013026D02*
G01X0016111Y0013011D01*
G01X0016111Y0013011D02*
G01X0016053Y0013011D01*
G01X0016053Y0013011D02*
G01X0016025Y0013026D01*
G01X0016025Y0013026D02*
G01X0015996Y0013054D01*
G01X0015996Y0013054D02*
G01X0015982Y0013083D01*
G01X0015982Y0013083D02*
G01X0015967Y0013126D01*
G01X0015967Y0013126D02*
G01X0015967Y0013198D01*
G01X0015967Y0013198D02*
G01X0015982Y0013241D01*
G01X0015982Y0013241D02*
G01X0015996Y0013269D01*
G01X0015996Y0013269D02*
G01X0016025Y0013298D01*
G01X0016025Y0013298D02*
G01X0016053Y0013312D01*
G01X0016053Y0013312D02*
G01X0016111Y0013312D01*
G01X0015583Y0013169D02*
G01X0015454Y0013169D01*
G01X0015454Y0013169D02*
G01X0015411Y0013183D01*
G01X0015411Y0013183D02*
G01X0015396Y0013198D01*
G01X0015396Y0013198D02*
G01X0015382Y0013226D01*
G01X0015382Y0013226D02*
G01X0015382Y0013255D01*
G01X0015382Y0013255D02*
G01X0015396Y0013284D01*
G01X0015396Y0013284D02*
G01X0015411Y0013298D01*
G01X0015411Y0013298D02*
G01X0015454Y0013312D01*
G01X0015454Y0013312D02*
G01X0015583Y0013312D01*
G01X0015583Y0013312D02*
G01X0015583Y0013011D01*
G01X0015483Y0013169D02*
G01X0015382Y0013011D01*
G01X0015103Y0013312D02*
G01X0015290Y0013312D01*
G01X0015290Y0013312D02*
G01X0015290Y0013011D01*
G01X0015290Y0013011D02*
G01X0015103Y0013011D01*
G01X0015290Y0013169D02*
G01X0015175Y0013169D01*
G01X0014795Y0013241D02*
G01X0014810Y0013269D01*
G01X0014810Y0013269D02*
G01X0014838Y0013298D01*
G01X0014838Y0013298D02*
G01X0014867Y0013312D01*
G01X0014867Y0013312D02*
G01X0014924Y0013312D01*
G01X0014924Y0013312D02*
G01X0014953Y0013298D01*
G01X0014953Y0013298D02*
G01X0014982Y0013269D01*
G01X0014982Y0013269D02*
G01X0014996Y0013241D01*
G01X0014996Y0013241D02*
G01X0015011Y0013198D01*
G01X0015011Y0013198D02*
G01X0015011Y0013126D01*
G01X0015011Y0013126D02*
G01X0014996Y0013083D01*
G01X0014996Y0013083D02*
G01X0014982Y0013054D01*
G01X0014982Y0013054D02*
G01X0014953Y0013026D01*
G01X0014953Y0013026D02*
G01X0014924Y0013011D01*
G01X0014924Y0013011D02*
G01X0014867Y0013011D01*
G01X0014867Y0013011D02*
G01X0014838Y0013026D01*
G01X0014838Y0013026D02*
G01X0014810Y0013054D01*
G01X0014810Y0013054D02*
G01X0014795Y0013083D01*
G01X0014516Y0013312D02*
G01X0014703Y0013312D01*
G01X0014703Y0013312D02*
G01X0014703Y0013011D01*
G01X0014703Y0013011D02*
G01X0014516Y0013011D01*
G01X0014703Y0013169D02*
G01X0014588Y0013169D01*
G01X0014424Y0013155D02*
G01X0014294Y0013155D01*
G01X0014294Y0013155D02*
G01X0014252Y0013169D01*
G01X0014252Y0013169D02*
G01X0014237Y0013183D01*
G01X0014237Y0013183D02*
G01X0014223Y0013212D01*
G01X0014223Y0013212D02*
G01X0014223Y0013255D01*
G01X0014223Y0013255D02*
G01X0014237Y0013284D01*
G01X0014237Y0013284D02*
G01X0014252Y0013298D01*
G01X0014252Y0013298D02*
G01X0014294Y0013312D01*
G01X0014294Y0013312D02*
G01X0014424Y0013312D01*
G01X0014424Y0013312D02*
G01X0014424Y0013011D01*
G01X0014030Y0013312D02*
G01X0014030Y0013011D01*
G01X0014130Y0013312D02*
G01X0013929Y0013312D01*
G01X0013607Y0013011D02*
G01X0013722Y0013312D01*
G01X0013722Y0013312D02*
G01X0013836Y0013011D01*
G01X0013793Y0013111D02*
G01X0013650Y0013111D01*
G01X0013299Y0013241D02*
G01X0013313Y0013269D01*
G01X0013313Y0013269D02*
G01X0013342Y0013298D01*
G01X0013342Y0013298D02*
G01X0013370Y0013312D01*
G01X0013370Y0013312D02*
G01X0013428Y0013312D01*
G01X0013428Y0013312D02*
G01X0013457Y0013298D01*
G01X0013457Y0013298D02*
G01X0013485Y0013269D01*
G01X0013485Y0013269D02*
G01X0013500Y0013241D01*
G01X0013500Y0013241D02*
G01X0013514Y0013198D01*
G01X0013514Y0013198D02*
G01X0013514Y0013126D01*
G01X0013514Y0013126D02*
G01X0013500Y0013083D01*
G01X0013500Y0013083D02*
G01X0013485Y0013054D01*
G01X0013485Y0013054D02*
G01X0013457Y0013026D01*
G01X0013457Y0013026D02*
G01X0013428Y0013011D01*
G01X0013428Y0013011D02*
G01X0013370Y0013011D01*
G01X0013370Y0013011D02*
G01X0013342Y0013026D01*
G01X0013342Y0013026D02*
G01X0013313Y0013054D01*
G01X0013313Y0013054D02*
G01X0013299Y0013083D01*
G01X0013206Y0013312D02*
G01X0013206Y0013011D01*
G01X0013206Y0013011D02*
G01X0013034Y0013011D01*
G01X0012755Y0013312D02*
G01X0012941Y0013312D01*
G01X0012941Y0013312D02*
G01X0012941Y0013011D01*
G01X0012941Y0013011D02*
G01X0012755Y0013011D01*
G01X0012941Y0013169D02*
G01X0012827Y0013169D01*
G01X0012270Y0013312D02*
G01X0012270Y0013011D01*
G01X0012371Y0013312D02*
G01X0012170Y0013312D01*
G01X0012077Y0013312D02*
G01X0012077Y0013011D01*
G01X0011876Y0013312D02*
G01X0011876Y0013011D01*
G01X0012077Y0013169D02*
G01X0011876Y0013169D01*
G01X0011784Y0013312D02*
G01X0011784Y0013011D01*
G01X0011490Y0013269D02*
G01X0011519Y0013298D01*
G01X0011519Y0013298D02*
G01X0011562Y0013312D01*
G01X0011562Y0013312D02*
G01X0011619Y0013312D01*
G01X0011619Y0013312D02*
G01X0011662Y0013298D01*
G01X0011662Y0013298D02*
G01X0011691Y0013269D01*
G01X0011691Y0013269D02*
G01X0011691Y0013241D01*
G01X0011691Y0013241D02*
G01X0011676Y0013212D01*
G01X0011676Y0013212D02*
G01X0011662Y0013198D01*
G01X0011662Y0013198D02*
G01X0011634Y0013183D01*
G01X0011634Y0013183D02*
G01X0011547Y0013155D01*
G01X0011547Y0013155D02*
G01X0011519Y0013140D01*
G01X0011519Y0013140D02*
G01X0011504Y0013126D01*
G01X0011504Y0013126D02*
G01X0011490Y0013097D01*
G01X0011490Y0013097D02*
G01X0011490Y0013054D01*
G01X0011490Y0013054D02*
G01X0011519Y0013026D01*
G01X0011519Y0013026D02*
G01X0011562Y0013011D01*
G01X0011562Y0013011D02*
G01X0011619Y0013011D01*
G01X0011619Y0013011D02*
G01X0011662Y0013026D01*
G01X0011662Y0013026D02*
G01X0011691Y0013054D01*
G01X0010905Y0013269D02*
G01X0010933Y0013298D01*
G01X0010933Y0013298D02*
G01X0010976Y0013312D01*
G01X0010976Y0013312D02*
G01X0011034Y0013312D01*
G01X0011034Y0013312D02*
G01X0011077Y0013298D01*
G01X0011077Y0013298D02*
G01X0011106Y0013269D01*
G01X0011106Y0013269D02*
G01X0011106Y0013241D01*
G01X0011106Y0013241D02*
G01X0011091Y0013212D01*
G01X0011091Y0013212D02*
G01X0011077Y0013198D01*
G01X0011077Y0013198D02*
G01X0011048Y0013183D01*
G01X0011048Y0013183D02*
G01X0010962Y0013155D01*
G01X0010962Y0013155D02*
G01X0010933Y0013140D01*
G01X0010933Y0013140D02*
G01X0010919Y0013126D01*
G01X0010919Y0013126D02*
G01X0010905Y0013097D01*
G01X0010905Y0013097D02*
G01X0010905Y0013054D01*
G01X0010905Y0013054D02*
G01X0010933Y0013026D01*
G01X0010933Y0013026D02*
G01X0010976Y0013011D01*
G01X0010976Y0013011D02*
G01X0011034Y0013011D01*
G01X0011034Y0013011D02*
G01X0011077Y0013026D01*
G01X0011077Y0013026D02*
G01X0011106Y0013054D01*
G01X0010812Y0013312D02*
G01X0010812Y0013011D01*
G01X0010720Y0013312D02*
G01X0010720Y0013011D01*
G01X0010720Y0013011D02*
G01X0010619Y0013011D01*
G01X0010619Y0013011D02*
G01X0010576Y0013026D01*
G01X0010576Y0013026D02*
G01X0010547Y0013054D01*
G01X0010547Y0013054D02*
G01X0010533Y0013083D01*
G01X0010533Y0013083D02*
G01X0010519Y0013126D01*
G01X0010519Y0013126D02*
G01X0010519Y0013198D01*
G01X0010519Y0013198D02*
G01X0010533Y0013241D01*
G01X0010533Y0013241D02*
G01X0010547Y0013269D01*
G01X0010547Y0013269D02*
G01X0010576Y0013298D01*
G01X0010576Y0013298D02*
G01X0010619Y0013312D01*
G01X0010619Y0013312D02*
G01X0010720Y0013312D01*
G01X0010240Y0013312D02*
G01X0010426Y0013312D01*
G01X0010426Y0013312D02*
G01X0010426Y0013011D01*
G01X0010426Y0013011D02*
G01X0010240Y0013011D01*
G01X0010426Y0013169D02*
G01X0010311Y0013169D01*
M02*
