G04 DipTrace 3.3.1.3*
G04 Bottom.gbr*
%MOMM*%
G04 #@! TF.FileFunction,Copper,L2,Bot*
G04 #@! TF.Part,Single*
G04 #@! TA.AperFunction,Conductor*
%ADD13C,0.4*%
%ADD16R,1.5X1.3*%
G04 #@! TA.AperFunction,ComponentPad*
%ADD17R,1.6X1.6*%
%ADD18C,1.6*%
%ADD19C,2.8*%
%ADD20R,1.7X1.7*%
%ADD21C,1.7*%
%FSLAX35Y35*%
G04*
G71*
G90*
G75*
G01*
G04 Bottom*
%LPD*%
X1412723Y3413500D2*
D13*
X3302350D1*
X3714600Y3825750D1*
X1444473Y1476250D2*
X1349223D1*
X1222223Y1603250D1*
Y1889000D1*
X1412723Y2079500D1*
X3359427D1*
X3638327Y1800600D1*
X3994327D1*
X2926327D2*
Y1820020D1*
X2777973Y1968373D1*
X2206473D1*
X1968350Y1730250D1*
X1444473D1*
X1412723Y3603500D2*
X2476350D1*
X2698600Y3825750D1*
D16*
X1412723Y3603500D3*
Y3413500D3*
D17*
X1444473Y1730250D3*
D18*
Y1476250D3*
D19*
X4524087Y2619757D3*
X4346087Y2924757D3*
X4168087Y2619757D3*
X3990087Y2924757D3*
X3812087Y2619757D3*
X3634087Y2924757D3*
X3456087Y2619757D3*
X3278087Y2924757D3*
X3100087Y2619757D3*
X2922087Y2924757D3*
X2744087Y2619757D3*
X2566087Y2924757D3*
X2388087Y2619757D3*
D20*
X4984600Y3825750D3*
D21*
X4730600D3*
X4476600D3*
X4222600D3*
X3968600D3*
X3714600D3*
X3460600D3*
X3206600D3*
X2952600D3*
X2698600D3*
X2444600D3*
X2190600D3*
X1936600D3*
X2570327Y1800600D3*
X2926327D3*
X3282327D3*
X3638327D3*
X3994327D3*
X4350327D3*
D19*
X4528600Y1492123D3*
X4350600Y1187123D3*
X4172600Y1492123D3*
X3994600Y1187123D3*
X3816600Y1492123D3*
X3638600Y1187123D3*
X3460600Y1492123D3*
X3282600Y1187123D3*
X3104600Y1492123D3*
X2926600Y1187123D3*
X2748600Y1492123D3*
X2570600Y1187123D3*
X2392600Y1492123D3*
M02*
