M48
METRIC,0000.00
T01C0.9
T02C1.1
T03C2.1
T04C6.0
%
T01
X+001444Y+001730
X+001444Y+001476
T02
X+004985Y+003826
X+004731Y+003826
X+004477Y+003826
X+004223Y+003826
X+003969Y+003826
X+003715Y+003826
X+003461Y+003826
X+003207Y+003826
X+002953Y+003826
X+002699Y+003826
X+002445Y+003826
X+002191Y+003826
X+001937Y+003826
X+002570Y+001801
X+002926Y+001801
X+003282Y+001801
X+003638Y+001801
X+003994Y+001801
X+004350Y+001801
T03
X+004524Y+002620
X+004346Y+002925
X+004168Y+002620
X+003990Y+002925
X+003812Y+002620
X+003634Y+002925
X+003456Y+002620
X+003278Y+002925
X+003100Y+002620
X+002922Y+002925
X+002744Y+002620
X+002566Y+002925
X+002388Y+002620
X+002393Y+001492
X+002571Y+001187
X+002749Y+001492
X+002927Y+001187
X+003105Y+001492
X+003283Y+001187
X+003461Y+001492
X+003639Y+001187
X+003817Y+001492
X+003995Y+001187
X+004173Y+001492
X+004351Y+001187
X+004529Y+001492
T04
X+001461Y+002527
X+005461Y+002527
T00
M30
