G04 DipTrace 3.3.1.3*
G04 TopSilk.gbr*
%MOMM*%
G04 #@! TF.FileFunction,Legend,Top*
G04 #@! TF.Part,Single*
%ADD10C,0.25*%
%ADD12C,0.076*%
%ADD22C,0.1*%
%ADD23O,0.82835X0.82511*%
%ADD24O,0.8272X0.82511*%
%ADD41C,0.11765*%
%ADD42C,0.15686*%
%ADD43C,0.19608*%
%FSLAX35Y35*%
G04*
G71*
G90*
G75*
G01*
G04 TopSilk*
%LPD*%
X1762673Y3192900D2*
D22*
X1816746Y3192548D1*
X1568587Y3274777D2*
X1787754D1*
X1602642Y3294771D2*
Y3072970D1*
X1682255Y3350882D2*
Y3248447D1*
X1763249Y3294384D2*
Y2998872D1*
X1667299Y3033439D2*
X1871509D1*
X1682600Y3153721D2*
X1682255Y3013234D1*
X1846658Y3077159D2*
Y2998872D1*
X1822613Y3112395D2*
X1580552D1*
X1513825Y3192970D2*
X1602066Y3193287D1*
D23*
X1600916Y3192935D3*
D24*
X1762961Y3192653D3*
X1682082Y3275094D3*
X1762731Y3110635D3*
X1646590Y3193410D2*
D22*
X1646676Y3195911D1*
X1646933Y3198400D1*
X1647359Y3200864D1*
X1647954Y3203292D1*
X1648713Y3205672D1*
X1649634Y3207992D1*
X1650711Y3210242D1*
X1651939Y3212409D1*
X1653313Y3214483D1*
X1654826Y3216455D1*
X1656470Y3218315D1*
X1658238Y3220053D1*
X1660120Y3221662D1*
X1662108Y3223133D1*
X1664192Y3224459D1*
X1666362Y3225634D1*
X1668607Y3226652D1*
X1670916Y3227507D1*
X1673278Y3228197D1*
X1675681Y3228718D1*
X1678115Y3229066D1*
X1680566Y3229240D1*
X1683023D1*
X1685475Y3229066D1*
X1687908Y3228718D1*
X1690311Y3228197D1*
X1692673Y3227507D1*
X1694983Y3226652D1*
X1697227Y3225634D1*
X1699397Y3224459D1*
X1701481Y3223133D1*
X1703469Y3221662D1*
X1705351Y3220053D1*
X1707119Y3218315D1*
X1708763Y3216455D1*
X1710276Y3214483D1*
X1711650Y3212409D1*
X1712879Y3210242D1*
X1713956Y3207992D1*
X1714876Y3205672D1*
X1715636Y3203292D1*
X1716230Y3200864D1*
X1716657Y3198400D1*
X1716914Y3195911D1*
X1716999Y3193410D1*
X1716914Y3190909D1*
X1716657Y3188420D1*
X1716230Y3185956D1*
X1715636Y3183528D1*
X1714876Y3181148D1*
X1713956Y3178828D1*
X1712879Y3176578D1*
X1711650Y3174411D1*
X1710276Y3172337D1*
X1708763Y3170365D1*
X1707119Y3168505D1*
X1705351Y3166767D1*
X1703469Y3165158D1*
X1701481Y3163687D1*
X1699397Y3162361D1*
X1697227Y3161186D1*
X1694983Y3160168D1*
X1692673Y3159313D1*
X1690311Y3158623D1*
X1687908Y3158102D1*
X1685475Y3157754D1*
X1683023Y3157580D1*
X1680566D1*
X1678115Y3157754D1*
X1675681Y3158102D1*
X1673278Y3158623D1*
X1670916Y3159313D1*
X1668607Y3160168D1*
X1666362Y3161186D1*
X1664192Y3162361D1*
X1662108Y3163687D1*
X1660120Y3165158D1*
X1658238Y3166767D1*
X1656470Y3168505D1*
X1654826Y3170365D1*
X1653313Y3172337D1*
X1651939Y3174411D1*
X1650711Y3176578D1*
X1649634Y3178828D1*
X1648713Y3181148D1*
X1647954Y3183528D1*
X1647359Y3185956D1*
X1646933Y3188420D1*
X1646676Y3190909D1*
X1646590Y3193410D1*
X1526020Y3209092D2*
Y3166041D1*
X5079850Y1142877D2*
D10*
X5079853Y2047750D1*
X1825473D1*
Y1127000D1*
X1855994Y3251885D2*
D12*
X1859794D1*
X1969994D2*
X1992794D1*
X2030794D2*
X2114394D1*
X2129594D2*
X2232194D1*
X1855994Y3248085D2*
X1863594D1*
X1969994D2*
X1992794D1*
X2030794D2*
X2114394D1*
X2129594D2*
X2232194D1*
X1855994Y3244285D2*
X1867394D1*
X1969994D2*
X1992794D1*
X2030794D2*
X2114394D1*
X2129594D2*
X2232194D1*
X1855994Y3240485D2*
X1871194D1*
X1969994D2*
X1992794D1*
X2030794D2*
X2114394D1*
X2129594D2*
X2232194D1*
X1855994Y3236685D2*
X1874994D1*
X1969994D2*
X1992794D1*
X2030794D2*
X2114394D1*
X2129594D2*
X2232194D1*
X1855994Y3232885D2*
X1878794D1*
X1969994D2*
X1992794D1*
X2030794D2*
X2114394D1*
X2129594D2*
X2232194D1*
X1855994Y3229085D2*
X1882594D1*
X1969994D2*
X1992794D1*
X2030794D2*
X2053594D1*
X2167594D2*
X2190394D1*
X1855994Y3225285D2*
X1886394D1*
X1969994D2*
X1992794D1*
X2030794D2*
X2053594D1*
X2167594D2*
X2190394D1*
X1855994Y3221485D2*
X1890194D1*
X1969994D2*
X1992794D1*
X2030794D2*
X2053594D1*
X2167594D2*
X2190394D1*
X1855994Y3217685D2*
X1893994D1*
X1969994D2*
X1992794D1*
X2030794D2*
X2053594D1*
X2167594D2*
X2190394D1*
X1855994Y3213885D2*
X1897809D1*
X1969994D2*
X1992794D1*
X2030794D2*
X2053594D1*
X2167594D2*
X2190394D1*
X1855994Y3210085D2*
X1901743D1*
X1969994D2*
X1992794D1*
X2030794D2*
X2053594D1*
X2167594D2*
X2190394D1*
X1855994Y3206285D2*
X1906027D1*
X1969994D2*
X1992794D1*
X2030794D2*
X2053594D1*
X2167594D2*
X2190394D1*
X1855994Y3202485D2*
X1874994D1*
X1882007D2*
X1910737D1*
X1969994D2*
X1992794D1*
X2030794D2*
X2053594D1*
X2167594D2*
X2190394D1*
X1855994Y3198685D2*
X1874994D1*
X1884865D2*
X1915511D1*
X1969994D2*
X1992794D1*
X2030794D2*
X2053594D1*
X2167594D2*
X2190394D1*
X1855994Y3194885D2*
X1874994D1*
X1887696D2*
X1919974D1*
X1969994D2*
X1992794D1*
X2030794D2*
X2053594D1*
X2167594D2*
X2190394D1*
X1855994Y3191085D2*
X1874994D1*
X1890964D2*
X1924127D1*
X1969994D2*
X1992794D1*
X2030794D2*
X2114394D1*
X2167594D2*
X2190394D1*
X1855994Y3187285D2*
X1874994D1*
X1894895D2*
X1928088D1*
X1969994D2*
X1992794D1*
X2030794D2*
X2114394D1*
X2167594D2*
X2190394D1*
X1855994Y3183485D2*
X1874994D1*
X1899444D2*
X1931954D1*
X1969994D2*
X1992794D1*
X2030794D2*
X2114394D1*
X2167594D2*
X2190394D1*
X1855994Y3179685D2*
X1874994D1*
X1904151D2*
X1935780D1*
X1969994D2*
X1992794D1*
X2030794D2*
X2114394D1*
X2167594D2*
X2190394D1*
X1855994Y3175885D2*
X1874994D1*
X1908589D2*
X1939589D1*
X1969994D2*
X1992794D1*
X2030794D2*
X2114394D1*
X2167594D2*
X2190394D1*
X1855994Y3172085D2*
X1874994D1*
X1912732D2*
X1943393D1*
X1969994D2*
X1992794D1*
X2030794D2*
X2114394D1*
X2167594D2*
X2190394D1*
X1855994Y3168285D2*
X1874994D1*
X1916689D2*
X1947194D1*
X1969994D2*
X1992794D1*
X2030794D2*
X2053594D1*
X2167594D2*
X2190394D1*
X1855994Y3164485D2*
X1874994D1*
X1920555D2*
X1951009D1*
X1969980D2*
X1992794D1*
X2030794D2*
X2053594D1*
X2167594D2*
X2190394D1*
X1855994Y3160685D2*
X1874994D1*
X1924395D2*
X1954954D1*
X1969835D2*
X1992794D1*
X2030794D2*
X2053594D1*
X2167594D2*
X2190394D1*
X1855994Y3156885D2*
X1874994D1*
X1928338D2*
X1959341D1*
X1969248D2*
X1992794D1*
X2030794D2*
X2053594D1*
X2167594D2*
X2190394D1*
X1855994Y3153085D2*
X1874994D1*
X1932625D2*
X1964440D1*
X1967948D2*
X1992794D1*
X2030794D2*
X2053594D1*
X2167594D2*
X2190394D1*
X1855994Y3149285D2*
X1874994D1*
X1937337D2*
X1992794D1*
X2030794D2*
X2053594D1*
X2167594D2*
X2190394D1*
X1855994Y3145485D2*
X1874994D1*
X1942111D2*
X1992794D1*
X2030794D2*
X2053594D1*
X2167594D2*
X2190394D1*
X1855994Y3141685D2*
X1874994D1*
X1946574D2*
X1992794D1*
X2030794D2*
X2053594D1*
X2167594D2*
X2190394D1*
X1855994Y3137885D2*
X1874994D1*
X1950727D2*
X1992794D1*
X2030794D2*
X2053594D1*
X2167594D2*
X2190394D1*
X1855994Y3134085D2*
X1874994D1*
X1954688D2*
X1992794D1*
X2030794D2*
X2053594D1*
X2167594D2*
X2190394D1*
X1855994Y3130285D2*
X1874994D1*
X1958554D2*
X1992794D1*
X2030794D2*
X2053594D1*
X2167594D2*
X2190394D1*
X1855994Y3126485D2*
X1874994D1*
X1962380D2*
X1992794D1*
X2030794D2*
X2053594D1*
X2167594D2*
X2190394D1*
X1855994Y3122685D2*
X1874994D1*
X1966204D2*
X1992794D1*
X2030794D2*
X2053594D1*
X2167594D2*
X2190394D1*
X1855994Y3118885D2*
X1874994D1*
X1970141D2*
X1992794D1*
X2030794D2*
X2114394D1*
X2167594D2*
X2190394D1*
X1855994Y3115085D2*
X1874994D1*
X1974429D2*
X1992794D1*
X2030794D2*
X2114394D1*
X2167594D2*
X2190394D1*
X1855994Y3111285D2*
X1874994D1*
X1979172D2*
X1992794D1*
X2030794D2*
X2114394D1*
X2167594D2*
X2190394D1*
X1855994Y3107485D2*
X1874994D1*
X1984103D2*
X1992794D1*
X2030794D2*
X2114394D1*
X2167594D2*
X2190394D1*
X1855994Y3103685D2*
X1874994D1*
X1988994D2*
X1992794D1*
X2030794D2*
X2114394D1*
X2167594D2*
X2190394D1*
X1855994Y3099885D2*
X1874994D1*
X2030794D2*
X2114394D1*
X2167594D2*
X2190394D1*
X1110483Y3245127D2*
X1194083D1*
X1224483D2*
X1243483D1*
X1327083D2*
X1346083D1*
X1410683D2*
X1433483D1*
X1467683D2*
X1490483D1*
X1110483Y3241327D2*
X1194083D1*
X1224483D2*
X1243483D1*
X1327083D2*
X1346083D1*
X1410683D2*
X1433483D1*
X1467683D2*
X1490483D1*
X1110483Y3237527D2*
X1194083D1*
X1224483D2*
X1243483D1*
X1327083D2*
X1346083D1*
X1410683D2*
X1433483D1*
X1467683D2*
X1490483D1*
X1110483Y3233727D2*
X1194083D1*
X1224483D2*
X1243483D1*
X1327083D2*
X1346083D1*
X1410683D2*
X1433483D1*
X1467683D2*
X1490483D1*
X1110483Y3229927D2*
X1194083D1*
X1224483D2*
X1243483D1*
X1327083D2*
X1346083D1*
X1410683D2*
X1433483D1*
X1467683D2*
X1490483D1*
X1110483Y3226127D2*
X1194083D1*
X1224483D2*
X1243483D1*
X1327083D2*
X1346083D1*
X1410683D2*
X1433483D1*
X1467683D2*
X1490483D1*
X1110483Y3222327D2*
X1133283D1*
X1224483D2*
X1243483D1*
X1327083D2*
X1346083D1*
X1410683D2*
X1433483D1*
X1467683D2*
X1490483D1*
X1110483Y3218527D2*
X1133283D1*
X1224483D2*
X1243483D1*
X1327083D2*
X1346083D1*
X1410683D2*
X1433483D1*
X1467683D2*
X1490483D1*
X1110483Y3214727D2*
X1133283D1*
X1224483D2*
X1243483D1*
X1327083D2*
X1346083D1*
X1410683D2*
X1433483D1*
X1467683D2*
X1490483D1*
X1110483Y3210927D2*
X1133283D1*
X1224483D2*
X1243483D1*
X1327083D2*
X1346083D1*
X1410683D2*
X1433483D1*
X1467683D2*
X1490483D1*
X1110483Y3207127D2*
X1133283D1*
X1224483D2*
X1243483D1*
X1327083D2*
X1346083D1*
X1410683D2*
X1433483D1*
X1467683D2*
X1490483D1*
X1110483Y3203327D2*
X1133283D1*
X1224483D2*
X1243483D1*
X1327083D2*
X1346083D1*
X1410683D2*
X1433483D1*
X1467683D2*
X1490483D1*
X1110483Y3199527D2*
X1133283D1*
X1224483D2*
X1243483D1*
X1327083D2*
X1346083D1*
X1410683D2*
X1433483D1*
X1467683D2*
X1490483D1*
X1110483Y3195727D2*
X1133283D1*
X1224483D2*
X1243483D1*
X1327083D2*
X1346083D1*
X1410683D2*
X1433483D1*
X1467683D2*
X1490483D1*
X1110483Y3191927D2*
X1133283D1*
X1224483D2*
X1243483D1*
X1327083D2*
X1346083D1*
X1410683D2*
X1433483D1*
X1467683D2*
X1490483D1*
X1110483Y3188127D2*
X1133283D1*
X1224483D2*
X1243483D1*
X1327083D2*
X1346083D1*
X1410683D2*
X1433483D1*
X1467683D2*
X1490483D1*
X1110483Y3184327D2*
X1194083D1*
X1224483D2*
X1243483D1*
X1327083D2*
X1346083D1*
X1410683D2*
X1433483D1*
X1467683D2*
X1490483D1*
X1110483Y3180527D2*
X1194083D1*
X1224483D2*
X1243483D1*
X1327083D2*
X1346083D1*
X1410683D2*
X1433483D1*
X1467683D2*
X1490483D1*
X1110483Y3176727D2*
X1194083D1*
X1224483D2*
X1243483D1*
X1327083D2*
X1346083D1*
X1410683D2*
X1433483D1*
X1467683D2*
X1490483D1*
X1110483Y3172927D2*
X1194083D1*
X1224483D2*
X1243483D1*
X1327083D2*
X1346083D1*
X1410683D2*
X1433483D1*
X1467683D2*
X1490483D1*
X1110483Y3169127D2*
X1194083D1*
X1224483D2*
X1243483D1*
X1327083D2*
X1346083D1*
X1410683D2*
X1433483D1*
X1467683D2*
X1490483D1*
X1110483Y3165327D2*
X1194083D1*
X1224483D2*
X1243498D1*
X1327083D2*
X1346083D1*
X1410683D2*
X1433483D1*
X1467683D2*
X1490483D1*
X1110483Y3161527D2*
X1133283D1*
X1224483D2*
X1243632D1*
X1327068D2*
X1346083D1*
X1410683D2*
X1433483D1*
X1467683D2*
X1490483D1*
X1110483Y3157727D2*
X1133283D1*
X1224483D2*
X1244116D1*
X1326935D2*
X1346083D1*
X1410683D2*
X1433483D1*
X1467683D2*
X1490483D1*
X1110483Y3153927D2*
X1133283D1*
X1224483D2*
X1245026D1*
X1326451D2*
X1346083D1*
X1410683D2*
X1433483D1*
X1467683D2*
X1490483D1*
X1110483Y3150127D2*
X1133283D1*
X1224483D2*
X1246000D1*
X1325541D2*
X1346083D1*
X1410683D2*
X1433483D1*
X1467683D2*
X1490483D1*
X1110483Y3146327D2*
X1133283D1*
X1224483D2*
X1246678D1*
X1324551D2*
X1346083D1*
X1410683D2*
X1433483D1*
X1467683D2*
X1490483D1*
X1110483Y3142527D2*
X1133283D1*
X1224498D2*
X1247164D1*
X1323755D2*
X1346068D1*
X1410683D2*
X1433483D1*
X1467683D2*
X1490483D1*
X1110483Y3138727D2*
X1133283D1*
X1224632D2*
X1247824D1*
X1322904D2*
X1345935D1*
X1410683D2*
X1433483D1*
X1467683D2*
X1490483D1*
X1110483Y3134927D2*
X1133283D1*
X1225116D2*
X1248964D1*
X1321669D2*
X1345451D1*
X1410668D2*
X1433483D1*
X1467683D2*
X1490483D1*
X1110483Y3131127D2*
X1133283D1*
X1226041D2*
X1250745D1*
X1319847D2*
X1344526D1*
X1410520D2*
X1433483D1*
X1467683D2*
X1490483D1*
X1110483Y3127327D2*
X1133283D1*
X1227164D2*
X1253079D1*
X1317493D2*
X1343403D1*
X1409843D2*
X1433468D1*
X1467683D2*
X1490483D1*
X1110483Y3123527D2*
X1133283D1*
X1228444D2*
X1258971D1*
X1311598D2*
X1342122D1*
X1408524D2*
X1433335D1*
X1467683D2*
X1490483D1*
X1110483Y3119727D2*
X1133283D1*
X1230206D2*
X1269052D1*
X1301515D2*
X1340361D1*
X1380283D2*
X1384083D1*
X1403755D2*
X1432836D1*
X1467683D2*
X1490483D1*
X1110483Y3115927D2*
X1133283D1*
X1232415D2*
X1284917D1*
X1285650D2*
X1338152D1*
X1376658D2*
X1393227D1*
X1396585D2*
X1431792D1*
X1467683D2*
X1490483D1*
X1110483Y3112127D2*
X1133283D1*
X1234900D2*
X1335667D1*
X1373642D2*
X1430319D1*
X1467683D2*
X1490483D1*
X1110483Y3108327D2*
X1133283D1*
X1238131D2*
X1332436D1*
X1371385D2*
X1428583D1*
X1467683D2*
X1490483D1*
X1110483Y3104527D2*
X1133283D1*
X1242858D2*
X1327709D1*
X1371780D2*
X1426479D1*
X1467683D2*
X1490483D1*
X1110483Y3100727D2*
X1133283D1*
X1249369D2*
X1321198D1*
X1375459D2*
X1423536D1*
X1467683D2*
X1490483D1*
X1110483Y3096927D2*
X1133283D1*
X1257437D2*
X1313130D1*
X1381084D2*
X1419365D1*
X1467683D2*
X1490483D1*
X1110483Y3093127D2*
X1133283D1*
X1266283D2*
X1304283D1*
X1387883D2*
X1414483D1*
X1467683D2*
X1490483D1*
X1855994Y3251885D2*
Y3248085D1*
Y3244285D1*
Y3240485D1*
Y3236685D1*
Y3232885D1*
Y3229085D1*
Y3225285D1*
Y3221485D1*
Y3217685D1*
Y3213885D1*
Y3210085D1*
Y3206285D1*
Y3202485D1*
Y3198685D1*
Y3194885D1*
Y3191085D1*
Y3187285D1*
Y3183485D1*
Y3179685D1*
Y3175885D1*
Y3172085D1*
Y3168285D1*
Y3164485D1*
Y3160685D1*
Y3156885D1*
Y3153085D1*
Y3149285D1*
Y3145485D1*
Y3141685D1*
Y3137885D1*
Y3134085D1*
Y3130285D1*
Y3126485D1*
Y3122685D1*
Y3118885D1*
Y3115085D1*
Y3111285D1*
Y3107485D1*
Y3103685D1*
Y3099885D1*
X1859794Y3251885D2*
X1863594Y3248085D1*
X1867394Y3244285D1*
X1871194Y3240485D1*
X1874994Y3236685D1*
X1878794Y3232885D1*
X1882594Y3229085D1*
X1886394Y3225285D1*
X1890194Y3221485D1*
X1893994Y3217685D1*
X1897809Y3213885D1*
X1901743Y3210085D1*
X1906027Y3206285D1*
X1910737Y3202485D1*
X1915511Y3198685D1*
X1919974Y3194885D1*
X1924127Y3191085D1*
X1928088Y3187285D1*
X1931954Y3183485D1*
X1935780Y3179685D1*
X1939589Y3175885D1*
X1943393Y3172085D1*
X1947194Y3168285D1*
X1951009Y3164485D1*
X1954954Y3160685D1*
X1959341Y3156885D1*
X1964440Y3153085D1*
X1969994Y3149285D1*
Y3251885D2*
Y3248085D1*
Y3244285D1*
Y3240485D1*
Y3236685D1*
Y3232885D1*
Y3229085D1*
Y3225285D1*
Y3221485D1*
Y3217685D1*
Y3213885D1*
Y3210085D1*
Y3206285D1*
Y3202485D1*
Y3198685D1*
Y3194885D1*
Y3191085D1*
Y3187285D1*
Y3183485D1*
Y3179685D1*
Y3175885D1*
Y3172085D1*
Y3168285D1*
X1969980Y3164485D1*
X1969835Y3160685D1*
X1969248Y3156885D1*
X1967948Y3153085D1*
X1966194Y3149285D1*
X1992794Y3251885D2*
Y3248085D1*
Y3244285D1*
Y3240485D1*
Y3236685D1*
Y3232885D1*
Y3229085D1*
Y3225285D1*
Y3221485D1*
Y3217685D1*
Y3213885D1*
Y3210085D1*
Y3206285D1*
Y3202485D1*
Y3198685D1*
Y3194885D1*
Y3191085D1*
Y3187285D1*
Y3183485D1*
Y3179685D1*
Y3175885D1*
Y3172085D1*
Y3168285D1*
Y3164485D1*
Y3160685D1*
Y3156885D1*
Y3153085D1*
Y3149285D1*
Y3145485D1*
Y3141685D1*
Y3137885D1*
Y3134085D1*
Y3130285D1*
Y3126485D1*
Y3122685D1*
Y3118885D1*
Y3115085D1*
Y3111285D1*
Y3107485D1*
Y3103685D1*
X2030794Y3251885D2*
Y3248085D1*
Y3244285D1*
Y3240485D1*
Y3236685D1*
Y3232885D1*
Y3229085D1*
Y3225285D1*
Y3221485D1*
Y3217685D1*
Y3213885D1*
Y3210085D1*
Y3206285D1*
Y3202485D1*
Y3198685D1*
Y3194885D1*
Y3191085D1*
Y3187285D1*
Y3183485D1*
Y3179685D1*
Y3175885D1*
Y3172085D1*
Y3168285D1*
Y3164485D1*
Y3160685D1*
Y3156885D1*
Y3153085D1*
Y3149285D1*
Y3145485D1*
Y3141685D1*
Y3137885D1*
Y3134085D1*
Y3130285D1*
Y3126485D1*
Y3122685D1*
Y3118885D1*
Y3115085D1*
Y3111285D1*
Y3107485D1*
Y3103685D1*
Y3099885D1*
X2114394Y3251885D2*
Y3248085D1*
Y3244285D1*
Y3240485D1*
Y3236685D1*
Y3232885D1*
X2129594Y3251885D2*
Y3248085D1*
Y3244285D1*
Y3240485D1*
Y3236685D1*
Y3232885D1*
Y3229085D1*
X2167594D1*
Y3225285D1*
Y3221485D1*
Y3217685D1*
Y3213885D1*
Y3210085D1*
Y3206285D1*
Y3202485D1*
Y3198685D1*
Y3194885D1*
Y3191085D1*
Y3187285D1*
Y3183485D1*
Y3179685D1*
Y3175885D1*
Y3172085D1*
Y3168285D1*
Y3164485D1*
Y3160685D1*
Y3156885D1*
Y3153085D1*
Y3149285D1*
Y3145485D1*
Y3141685D1*
Y3137885D1*
Y3134085D1*
Y3130285D1*
Y3126485D1*
Y3122685D1*
Y3118885D1*
Y3115085D1*
Y3111285D1*
Y3107485D1*
Y3103685D1*
Y3099885D1*
X2232194Y3251885D2*
Y3248085D1*
Y3244285D1*
Y3240485D1*
Y3236685D1*
Y3232885D1*
Y3229085D1*
X2190394D1*
Y3225285D1*
Y3221485D1*
Y3217685D1*
Y3213885D1*
Y3210085D1*
Y3206285D1*
Y3202485D1*
Y3198685D1*
Y3194885D1*
Y3191085D1*
Y3187285D1*
Y3183485D1*
Y3179685D1*
Y3175885D1*
Y3172085D1*
Y3168285D1*
Y3164485D1*
Y3160685D1*
Y3156885D1*
Y3153085D1*
Y3149285D1*
Y3145485D1*
Y3141685D1*
Y3137885D1*
Y3134085D1*
Y3130285D1*
Y3126485D1*
Y3122685D1*
Y3118885D1*
Y3115085D1*
Y3111285D1*
Y3107485D1*
Y3103685D1*
Y3099885D1*
X2053594Y3232885D2*
Y3229085D1*
Y3225285D1*
Y3221485D1*
Y3217685D1*
Y3213885D1*
Y3210085D1*
Y3206285D1*
Y3202485D1*
Y3198685D1*
Y3194885D1*
Y3191085D1*
X1874994Y3206285D2*
Y3202485D1*
Y3198685D1*
Y3194885D1*
Y3191085D1*
Y3187285D1*
Y3183485D1*
Y3179685D1*
Y3175885D1*
Y3172085D1*
Y3168285D1*
Y3164485D1*
Y3160685D1*
Y3156885D1*
Y3153085D1*
Y3149285D1*
Y3145485D1*
Y3141685D1*
Y3137885D1*
Y3134085D1*
Y3130285D1*
Y3126485D1*
Y3122685D1*
Y3118885D1*
Y3115085D1*
Y3111285D1*
Y3107485D1*
Y3103685D1*
Y3099885D1*
X1878794Y3206285D2*
X1882007Y3202485D1*
X1884865Y3198685D1*
X1887696Y3194885D1*
X1890964Y3191085D1*
X1894895Y3187285D1*
X1899444Y3183485D1*
X1904151Y3179685D1*
X1908589Y3175885D1*
X1912732Y3172085D1*
X1916689Y3168285D1*
X1920555Y3164485D1*
X1924395Y3160685D1*
X1928338Y3156885D1*
X1932625Y3153085D1*
X1937337Y3149285D1*
X1942111Y3145485D1*
X1946574Y3141685D1*
X1950727Y3137885D1*
X1954688Y3134085D1*
X1958554Y3130285D1*
X1962380Y3126485D1*
X1966204Y3122685D1*
X1970141Y3118885D1*
X1974429Y3115085D1*
X1979172Y3111285D1*
X1984103Y3107485D1*
X1988994Y3103685D1*
X2114394Y3191085D2*
Y3187285D1*
Y3183485D1*
Y3179685D1*
Y3175885D1*
Y3172085D1*
X2053594D2*
Y3168285D1*
Y3164485D1*
Y3160685D1*
Y3156885D1*
Y3153085D1*
Y3149285D1*
Y3145485D1*
Y3141685D1*
Y3137885D1*
Y3134085D1*
Y3130285D1*
Y3126485D1*
Y3122685D1*
Y3118885D1*
X2114394D2*
Y3115085D1*
Y3111285D1*
Y3107485D1*
Y3103685D1*
Y3099885D1*
X1110483Y3245127D2*
Y3241327D1*
Y3237527D1*
Y3233727D1*
Y3229927D1*
Y3226127D1*
Y3222327D1*
Y3218527D1*
Y3214727D1*
Y3210927D1*
Y3207127D1*
Y3203327D1*
Y3199527D1*
Y3195727D1*
Y3191927D1*
Y3188127D1*
Y3184327D1*
Y3180527D1*
Y3176727D1*
Y3172927D1*
Y3169127D1*
Y3165327D1*
Y3161527D1*
Y3157727D1*
Y3153927D1*
Y3150127D1*
Y3146327D1*
Y3142527D1*
Y3138727D1*
Y3134927D1*
Y3131127D1*
Y3127327D1*
Y3123527D1*
Y3119727D1*
Y3115927D1*
Y3112127D1*
Y3108327D1*
Y3104527D1*
Y3100727D1*
Y3096927D1*
Y3093127D1*
X1194083Y3245127D2*
Y3241327D1*
Y3237527D1*
Y3233727D1*
Y3229927D1*
Y3226127D1*
X1224483Y3245127D2*
Y3241327D1*
Y3237527D1*
Y3233727D1*
Y3229927D1*
Y3226127D1*
Y3222327D1*
Y3218527D1*
Y3214727D1*
Y3210927D1*
Y3207127D1*
Y3203327D1*
Y3199527D1*
Y3195727D1*
Y3191927D1*
Y3188127D1*
Y3184327D1*
Y3180527D1*
Y3176727D1*
Y3172927D1*
Y3169127D1*
Y3165327D1*
Y3161527D1*
Y3157727D1*
Y3153927D1*
Y3150127D1*
Y3146327D1*
X1224498Y3142527D1*
X1224632Y3138727D1*
X1225116Y3134927D1*
X1226041Y3131127D1*
X1227164Y3127327D1*
X1228444Y3123527D1*
X1230206Y3119727D1*
X1232415Y3115927D1*
X1234900Y3112127D1*
X1238131Y3108327D1*
X1242858Y3104527D1*
X1249369Y3100727D1*
X1257437Y3096927D1*
X1266283Y3093127D1*
X1243483Y3245127D2*
Y3241327D1*
Y3237527D1*
Y3233727D1*
Y3229927D1*
Y3226127D1*
Y3222327D1*
Y3218527D1*
Y3214727D1*
Y3210927D1*
Y3207127D1*
Y3203327D1*
Y3199527D1*
Y3195727D1*
Y3191927D1*
Y3188127D1*
Y3184327D1*
Y3180527D1*
Y3176727D1*
Y3172927D1*
Y3169127D1*
X1243498Y3165327D1*
X1243632Y3161527D1*
X1244116Y3157727D1*
X1245026Y3153927D1*
X1246000Y3150127D1*
X1246678Y3146327D1*
X1247164Y3142527D1*
X1247824Y3138727D1*
X1248964Y3134927D1*
X1250745Y3131127D1*
X1253079Y3127327D1*
X1258971Y3123527D1*
X1269052Y3119727D1*
X1284917Y3115927D1*
X1304283Y3112127D1*
X1327083Y3245127D2*
Y3241327D1*
Y3237527D1*
Y3233727D1*
Y3229927D1*
Y3226127D1*
Y3222327D1*
Y3218527D1*
Y3214727D1*
Y3210927D1*
Y3207127D1*
Y3203327D1*
Y3199527D1*
Y3195727D1*
Y3191927D1*
Y3188127D1*
Y3184327D1*
Y3180527D1*
Y3176727D1*
Y3172927D1*
Y3169127D1*
Y3165327D1*
X1327068Y3161527D1*
X1326935Y3157727D1*
X1326451Y3153927D1*
X1325541Y3150127D1*
X1324551Y3146327D1*
X1323755Y3142527D1*
X1322904Y3138727D1*
X1321669Y3134927D1*
X1319847Y3131127D1*
X1317493Y3127327D1*
X1311598Y3123527D1*
X1301515Y3119727D1*
X1285650Y3115927D1*
X1266283Y3112127D1*
X1346083Y3245127D2*
Y3241327D1*
Y3237527D1*
Y3233727D1*
Y3229927D1*
Y3226127D1*
Y3222327D1*
Y3218527D1*
Y3214727D1*
Y3210927D1*
Y3207127D1*
Y3203327D1*
Y3199527D1*
Y3195727D1*
Y3191927D1*
Y3188127D1*
Y3184327D1*
Y3180527D1*
Y3176727D1*
Y3172927D1*
Y3169127D1*
Y3165327D1*
Y3161527D1*
Y3157727D1*
Y3153927D1*
Y3150127D1*
Y3146327D1*
X1346068Y3142527D1*
X1345935Y3138727D1*
X1345451Y3134927D1*
X1344526Y3131127D1*
X1343403Y3127327D1*
X1342122Y3123527D1*
X1340361Y3119727D1*
X1338152Y3115927D1*
X1335667Y3112127D1*
X1332436Y3108327D1*
X1327709Y3104527D1*
X1321198Y3100727D1*
X1313130Y3096927D1*
X1304283Y3093127D1*
X1410683Y3245127D2*
Y3241327D1*
Y3237527D1*
Y3233727D1*
Y3229927D1*
Y3226127D1*
Y3222327D1*
Y3218527D1*
Y3214727D1*
Y3210927D1*
Y3207127D1*
Y3203327D1*
Y3199527D1*
Y3195727D1*
Y3191927D1*
Y3188127D1*
Y3184327D1*
Y3180527D1*
Y3176727D1*
Y3172927D1*
Y3169127D1*
Y3165327D1*
Y3161527D1*
Y3157727D1*
Y3153927D1*
Y3150127D1*
Y3146327D1*
Y3142527D1*
Y3138727D1*
X1410668Y3134927D1*
X1410520Y3131127D1*
X1409843Y3127327D1*
X1408524Y3123527D1*
X1403755Y3119727D1*
X1396585Y3115927D1*
X1387883Y3112127D1*
X1433483Y3245127D2*
Y3241327D1*
Y3237527D1*
Y3233727D1*
Y3229927D1*
Y3226127D1*
Y3222327D1*
Y3218527D1*
Y3214727D1*
Y3210927D1*
Y3207127D1*
Y3203327D1*
Y3199527D1*
Y3195727D1*
Y3191927D1*
Y3188127D1*
Y3184327D1*
Y3180527D1*
Y3176727D1*
Y3172927D1*
Y3169127D1*
Y3165327D1*
Y3161527D1*
Y3157727D1*
Y3153927D1*
Y3150127D1*
Y3146327D1*
Y3142527D1*
Y3138727D1*
Y3134927D1*
Y3131127D1*
X1433468Y3127327D1*
X1433335Y3123527D1*
X1432836Y3119727D1*
X1431792Y3115927D1*
X1430319Y3112127D1*
X1428583Y3108327D1*
X1426479Y3104527D1*
X1423536Y3100727D1*
X1419365Y3096927D1*
X1414483Y3093127D1*
X1467683Y3245127D2*
Y3241327D1*
Y3237527D1*
Y3233727D1*
Y3229927D1*
Y3226127D1*
Y3222327D1*
Y3218527D1*
Y3214727D1*
Y3210927D1*
Y3207127D1*
Y3203327D1*
Y3199527D1*
Y3195727D1*
Y3191927D1*
Y3188127D1*
Y3184327D1*
Y3180527D1*
Y3176727D1*
Y3172927D1*
Y3169127D1*
Y3165327D1*
Y3161527D1*
Y3157727D1*
Y3153927D1*
Y3150127D1*
Y3146327D1*
Y3142527D1*
Y3138727D1*
Y3134927D1*
Y3131127D1*
Y3127327D1*
Y3123527D1*
Y3119727D1*
Y3115927D1*
Y3112127D1*
Y3108327D1*
Y3104527D1*
Y3100727D1*
Y3096927D1*
Y3093127D1*
X1490483Y3245127D2*
Y3241327D1*
Y3237527D1*
Y3233727D1*
Y3229927D1*
Y3226127D1*
Y3222327D1*
Y3218527D1*
Y3214727D1*
Y3210927D1*
Y3207127D1*
Y3203327D1*
Y3199527D1*
Y3195727D1*
Y3191927D1*
Y3188127D1*
Y3184327D1*
Y3180527D1*
Y3176727D1*
Y3172927D1*
Y3169127D1*
Y3165327D1*
Y3161527D1*
Y3157727D1*
Y3153927D1*
Y3150127D1*
Y3146327D1*
Y3142527D1*
Y3138727D1*
Y3134927D1*
Y3131127D1*
Y3127327D1*
Y3123527D1*
Y3119727D1*
Y3115927D1*
Y3112127D1*
Y3108327D1*
Y3104527D1*
Y3100727D1*
Y3096927D1*
Y3093127D1*
X1133283Y3226127D2*
Y3222327D1*
Y3218527D1*
Y3214727D1*
Y3210927D1*
Y3207127D1*
Y3203327D1*
Y3199527D1*
Y3195727D1*
Y3191927D1*
Y3188127D1*
Y3184327D1*
X1194083D2*
Y3180527D1*
Y3176727D1*
Y3172927D1*
Y3169127D1*
Y3165327D1*
X1133283D2*
Y3161527D1*
Y3157727D1*
Y3153927D1*
Y3150127D1*
Y3146327D1*
Y3142527D1*
Y3138727D1*
Y3134927D1*
Y3131127D1*
Y3127327D1*
Y3123527D1*
Y3119727D1*
Y3115927D1*
Y3112127D1*
Y3108327D1*
Y3104527D1*
Y3100727D1*
Y3096927D1*
Y3093127D1*
X1380283Y3119727D2*
X1376658Y3115927D1*
X1373642Y3112127D1*
X1371385Y3108327D1*
X1371780Y3104527D1*
X1375459Y3100727D1*
X1381084Y3096927D1*
X1387883Y3093127D1*
X1384083Y3119727D2*
X1393227Y3115927D1*
X1403083Y3112127D1*
X5361140Y3132048D2*
D42*
X5463228D1*
X5409769D2*
X5399999Y3122389D1*
X5395169Y3112619D1*
Y3098019D1*
X5399999Y3088360D1*
X5409769Y3078589D1*
X5424369Y3073760D1*
X5434028D1*
X5448628Y3078589D1*
X5458286Y3088360D1*
X5463228Y3098019D1*
Y3112618D1*
X5458286Y3122389D1*
X5448628Y3132048D1*
X5424369Y3163420D2*
Y3221708D1*
X5414599D1*
X5404828Y3216879D1*
X5399999Y3212049D1*
X5395169Y3202279D1*
Y3187679D1*
X5399999Y3178020D1*
X5409769Y3168249D1*
X5424369Y3163420D1*
X5434028D1*
X5448628Y3168249D1*
X5458286Y3178020D1*
X5463228Y3187679D1*
Y3202279D1*
X5458286Y3212049D1*
X5448628Y3221708D1*
X5409769Y3306539D2*
X5399999Y3301710D1*
X5395169Y3287110D1*
Y3272510D1*
X5399999Y3257910D1*
X5409769Y3253080D1*
X5419428Y3257910D1*
X5424369Y3267680D1*
X5429199Y3291939D1*
X5434028Y3301710D1*
X5443799Y3306539D1*
X5448628D1*
X5458286Y3301710D1*
X5463228Y3287110D1*
Y3272510D1*
X5458286Y3257910D1*
X5448628Y3253080D1*
X5361140Y3337911D2*
X5365969Y3342741D1*
X5361140Y3347682D1*
X5356199Y3342741D1*
X5361140Y3337911D1*
X5395169Y3342741D2*
X5463228D1*
X5399999Y3437342D2*
X5477828D1*
X5492315Y3432513D1*
X5497257Y3427684D1*
X5502086Y3417913D1*
Y3403313D1*
X5497257Y3393655D1*
X5414599Y3437342D2*
X5404940Y3427684D1*
X5399999Y3417913D1*
Y3403313D1*
X5404940Y3393655D1*
X5414599Y3383884D1*
X5429199Y3379055D1*
X5438969D1*
X5453457Y3383884D1*
X5463228Y3393655D1*
X5468057Y3403313D1*
Y3417913D1*
X5463228Y3427684D1*
X5453457Y3437342D1*
X5395169Y3468715D2*
X5463228D1*
X5414599D2*
X5399999Y3483315D1*
X5395169Y3493086D1*
Y3507573D1*
X5399999Y3517344D1*
X5414599Y3522173D1*
X5463228D1*
X5361140Y3652303D2*
X5463228D1*
X5409769D2*
X5399999Y3662074D1*
X5395169Y3671732D1*
Y3686332D1*
X5399999Y3695991D1*
X5409769Y3705762D1*
X5424369Y3710591D1*
X5434028D1*
X5448628Y3705761D1*
X5458286Y3695991D1*
X5463228Y3686332D1*
Y3671732D1*
X5458286Y3662074D1*
X5448628Y3652303D1*
X5395169Y3746905D2*
X5463228Y3775993D1*
X5482657Y3766334D1*
X5492428Y3756563D1*
X5497257Y3746905D1*
Y3741963D1*
X5395169Y3805193D2*
X5463228Y3775993D1*
X5570214Y3117005D2*
Y3102405D1*
X5575043Y3092747D1*
X5579873Y3087805D1*
X5589643Y3082976D1*
X5609073D1*
X5613902Y3087805D1*
Y3097576D1*
X5609073Y3117005D1*
X5618731Y3121834D1*
Y3126664D1*
X5609073Y3136434D1*
X5584814Y3141264D1*
X5570214Y3136434D1*
X5560444Y3131605D1*
X5550785Y3121834D1*
X5545956Y3112176D1*
Y3092747D1*
X5550785Y3082976D1*
X5560443Y3073318D1*
X5570214Y3068376D1*
X5584814Y3063547D1*
X5609073D1*
X5623673Y3068376D1*
X5633331Y3073318D1*
X5643102Y3082976D1*
X5647931Y3092747D1*
Y3112176D1*
X5643102Y3121834D1*
X5633331Y3131605D1*
X5565385Y3117005D2*
X5609073D1*
X5579873Y3172636D2*
X5647931D1*
X5599302D2*
X5584702Y3187236D1*
X5579873Y3197007D1*
Y3211495D1*
X5584702Y3221265D1*
X5599302Y3226094D1*
X5647931D1*
X5599302D2*
X5584702Y3240694D1*
X5579873Y3250465D1*
Y3264953D1*
X5584702Y3274724D1*
X5599302Y3279665D1*
X5647931D1*
X5579873Y3335296D2*
X5584702Y3325638D1*
X5594473Y3315867D1*
X5609073Y3311038D1*
X5618731D1*
X5633331Y3315867D1*
X5642990Y3325638D1*
X5647931Y3335296D1*
Y3349896D1*
X5642990Y3359667D1*
X5633331Y3369325D1*
X5618731Y3374267D1*
X5609073D1*
X5594473Y3369325D1*
X5584702Y3359667D1*
X5579873Y3349896D1*
Y3335296D1*
Y3405640D2*
Y3459098D1*
X5647931Y3405640D1*
Y3459098D1*
X5579873Y3490471D2*
Y3543929D1*
X5647931Y3490471D1*
Y3543929D1*
X5579873Y3575302D2*
X5647931Y3594731D1*
X5579873Y3614160D1*
X5647931Y3633589D1*
X5579873Y3653018D1*
Y3742679D2*
X5647931D1*
X5594473D2*
X5584702Y3733020D1*
X5579873Y3723249D1*
Y3708762D1*
X5584702Y3698991D1*
X5594473Y3689333D1*
X5609073Y3684391D1*
X5618731D1*
X5633331Y3689333D1*
X5642990Y3698991D1*
X5647931Y3708762D1*
Y3723249D1*
X5642990Y3733020D1*
X5633331Y3742679D1*
X5545843Y3774051D2*
X5647931D1*
X5545843Y3863711D2*
X5647931D1*
X5594473D2*
X5584702Y3854053D1*
X5579873Y3844282D1*
Y3829682D1*
X5584702Y3820024D1*
X5594473Y3810253D1*
X5609073Y3805424D1*
X5618731D1*
X5633331Y3810253D1*
X5642990Y3820024D1*
X5647931Y3829682D1*
Y3844282D1*
X5642990Y3854053D1*
X5633331Y3863711D1*
X1846529Y2914840D2*
X1841700Y2909898D1*
X1846529Y2905069D1*
X1851471Y2909898D1*
X1846529Y2914840D1*
X1907102Y2973127D2*
X1897443Y2968298D1*
X1887672Y2958527D1*
X1882843Y2943927D1*
Y2934269D1*
X1887672Y2919669D1*
X1897443Y2910010D1*
X1907102Y2905069D1*
X1921702D1*
X1931472Y2910010D1*
X1941131Y2919669D1*
X1946072Y2934269D1*
Y2943927D1*
X1941131Y2958527D1*
X1931472Y2968298D1*
X1921702Y2973127D1*
X1907102D1*
X1977445D2*
Y2905069D1*
Y2953698D2*
X1992045Y2968298D1*
X2001816Y2973127D1*
X2016303D1*
X2026074Y2968298D1*
X2030903Y2953698D1*
Y2905069D1*
X2062276Y3007157D2*
Y2905069D1*
X2093648Y3007157D2*
X2098478Y3002327D1*
X2103419Y3007157D1*
X2098478Y3012098D1*
X2093648Y3007157D1*
X2098478Y2973127D2*
Y2905069D1*
X2134792Y2973127D2*
Y2905069D1*
Y2953698D2*
X2149392Y2968298D1*
X2159163Y2973127D1*
X2173650D1*
X2183421Y2968298D1*
X2188250Y2953698D1*
Y2905069D1*
X2219623Y2943927D2*
X2277910D1*
Y2953698D1*
X2273081Y2963469D1*
X2268252Y2968298D1*
X2258481Y2973127D1*
X2243881D1*
X2234223Y2968298D1*
X2224452Y2958527D1*
X2219623Y2943927D1*
Y2934269D1*
X2224452Y2919669D1*
X2234223Y2910010D1*
X2243881Y2905069D1*
X2258481D1*
X2268252Y2910010D1*
X2277910Y2919669D1*
X2007305Y3652849D2*
D43*
X1879695D1*
X2007305Y3528560D2*
X1879695Y3528561D1*
X2007305Y3613633D1*
X1879695Y3613634D1*
X2007305Y3446808D2*
X1879695D1*
X2007305Y3489345D2*
Y3404272D1*
X2236878Y3668726D2*
X2243055Y3656512D1*
X2261164Y3638262D1*
X2133695D1*
X2230841Y3592870D2*
X2236878D1*
X2249091Y3586833D1*
X2255128Y3580797D1*
X2261164Y3568583D1*
Y3544297D1*
X2255128Y3532224D1*
X2249091Y3526187D1*
X2236878Y3520010D1*
X2224805D1*
X2212591Y3526187D1*
X2194482Y3538260D1*
X2133695Y3599047D1*
Y3513974D1*
X2261305Y3474758D2*
X2133695Y3426185D1*
X2261305Y3377612D1*
X2387695Y3587316D2*
X2515305Y3636029D1*
X2387695Y3684602D1*
X2430232Y3666352D2*
Y3605566D1*
X2515305Y3548100D2*
X2424195D1*
X2405945Y3542064D1*
X2393872Y3529850D1*
X2387695Y3511600D1*
Y3499527D1*
X2393872Y3481277D1*
X2405945Y3469064D1*
X2424195Y3463027D1*
X2515305D1*
Y3423812D2*
X2387695D1*
Y3381275D1*
X2393872Y3363025D1*
X2405945Y3350812D1*
X2418159Y3344775D1*
X2436268Y3338739D1*
X2466732D1*
X2484982Y3344775D1*
X2497055Y3350812D1*
X2509268Y3363025D1*
X2515305Y3381275D1*
Y3423812D1*
Y3299523D2*
X2387695D1*
X2515305Y3175234D2*
X2387695D1*
X2515305Y3260307D1*
X2387695D1*
X2785038Y3579993D2*
Y3640639D1*
X2730428Y3646675D1*
X2736465Y3640639D1*
X2742642Y3622389D1*
Y3604279D1*
X2736465Y3586029D1*
X2724392Y3573816D1*
X2706142Y3567779D1*
X2694068Y3567780D1*
X2675818Y3573816D1*
X2663605Y3586030D1*
X2657568Y3604280D1*
Y3622389D1*
X2663605Y3640639D1*
X2669782Y3646675D1*
X2681855Y3652852D1*
X2785178Y3528564D2*
X2657569Y3479991D1*
X2785178Y3431418D1*
X2956482Y3668726D2*
Y3613976D1*
X2962518Y3595866D1*
X2968695Y3589689D1*
X2980768Y3583653D1*
X2999018D1*
X3011091Y3589689D1*
X3017268Y3595866D1*
X3023305Y3613976D1*
Y3668726D1*
X2895695D1*
X2962518Y3544437D2*
Y3489828D1*
X2968695Y3471578D1*
X2974732Y3465401D1*
X2986805Y3459364D1*
X2999018D1*
X3011091Y3465401D1*
X3017268Y3471578D1*
X3023305Y3489828D1*
Y3544437D1*
X2895695D1*
X2962518Y3501901D2*
X2895695Y3459364D1*
X3023305Y3383648D2*
X3017268Y3395862D1*
X3005055Y3407935D1*
X2992982Y3414112D1*
X2974732Y3420148D1*
X2944268Y3420149D1*
X2926159Y3414112D1*
X2913945Y3407935D1*
X2901872Y3395862D1*
X2895695Y3383649D1*
Y3359362D1*
X2901872Y3347289D1*
X2913945Y3335075D1*
X2926159Y3329039D1*
X2944268Y3323002D1*
X2974732D1*
X2992982Y3329039D1*
X3005055Y3335075D1*
X3017268Y3347289D1*
X3023305Y3359362D1*
Y3383648D1*
X2992982Y3192677D2*
X3005055Y3198714D1*
X3017268Y3210927D1*
X3023305Y3223000D1*
Y3247287D1*
X3017268Y3259500D1*
X3005055Y3271573D1*
X2992982Y3277750D1*
X2974732Y3283787D1*
X2944268D1*
X2926159Y3277750D1*
X2913945Y3271573D1*
X2901872Y3259500D1*
X2895695Y3247287D1*
Y3223000D1*
X2901872Y3210927D1*
X2913945Y3198714D1*
X2926159Y3192677D1*
X3149695Y3571580D2*
X3277305D1*
X3149695Y3620153D1*
X3277305Y3668726D1*
X3149695D1*
X3277305Y3495864D2*
X3271268Y3508078D1*
X3259055Y3520151D1*
X3246982Y3526328D1*
X3228732Y3532364D1*
X3198268D1*
X3180159Y3526328D1*
X3167945Y3520151D1*
X3155872Y3508078D1*
X3149695Y3495864D1*
Y3471578D1*
X3155872Y3459505D1*
X3167945Y3447291D1*
X3180159Y3441255D1*
X3198268Y3435218D1*
X3228732D1*
X3246982Y3441255D1*
X3259055Y3447291D1*
X3271268Y3459504D1*
X3277305Y3471578D1*
Y3495864D1*
Y3353466D2*
X3149695D1*
X3277305Y3396002D2*
Y3310929D1*
X3216518Y3271714D2*
Y3217104D1*
X3222695Y3198854D1*
X3228732Y3192677D1*
X3240805Y3186641D1*
X3253018D1*
X3265091Y3192677D1*
X3271268Y3198854D1*
X3277305Y3217104D1*
Y3271714D1*
X3149695D1*
X3216518Y3229177D2*
X3149695Y3186641D1*
X3500982Y3561743D2*
X3513055Y3567779D1*
X3525268Y3579993D1*
X3531305Y3592066D1*
Y3616352D1*
X3525268Y3628566D1*
X3513055Y3640639D1*
X3500982Y3646816D1*
X3482732Y3652852D1*
X3452268D1*
X3434159Y3646816D1*
X3421945Y3640639D1*
X3409872Y3628566D1*
X3403695Y3616353D1*
Y3592066D1*
X3409872Y3579993D1*
X3421945Y3567780D1*
X3434159Y3561743D1*
X3403695Y3425381D2*
X3531305D1*
X3403695Y3473954D1*
X3531305Y3522527D1*
X3403695D1*
X3531305Y3386166D2*
X3403695D1*
Y3343629D1*
X3409872Y3325379D1*
X3421945Y3313166D1*
X3434159Y3307129D1*
X3452268Y3301093D1*
X3482732Y3301092D1*
X3500982Y3307129D1*
X3513055Y3313166D1*
X3525268Y3325379D1*
X3531305Y3343629D1*
Y3386166D1*
X3754982Y3561743D2*
X3767055Y3567779D1*
X3779268Y3579993D1*
X3785305Y3592066D1*
Y3616352D1*
X3779268Y3628566D1*
X3767055Y3640639D1*
X3754982Y3646816D1*
X3736732Y3652852D1*
X3706268D1*
X3688159Y3646816D1*
X3675945Y3640639D1*
X3663872Y3628566D1*
X3657695Y3616353D1*
Y3592066D1*
X3663872Y3579993D1*
X3675945Y3567780D1*
X3688159Y3561743D1*
X3706268D1*
Y3592066D1*
X3785305Y3437454D2*
X3657695D1*
X3785305Y3522527D1*
X3657695D1*
X3785305Y3398239D2*
X3657695D1*
Y3355702D1*
X3663872Y3337452D1*
X3675945Y3325239D1*
X3688159Y3319202D1*
X3706268Y3313166D1*
X3736732D1*
X3754982Y3319202D1*
X3767055Y3325239D1*
X3779268Y3337452D1*
X3785305Y3355702D1*
Y3398239D1*
X4023428Y3652852D2*
X3895819D1*
X3895818Y3610316D1*
X3901995Y3592066D1*
X3914068Y3579853D1*
X3926282Y3573816D1*
X3944392Y3567779D1*
X3974855D1*
X3993105Y3573816D1*
X4005178Y3579852D1*
X4017392Y3592066D1*
X4023428Y3610316D1*
Y3652852D1*
Y3492064D2*
X4017392Y3504277D1*
X4005178Y3516350D1*
X3993105Y3522527D1*
X3974855Y3528564D1*
X3944392D1*
X3926282Y3522527D1*
X3914069Y3516350D1*
X3901995Y3504277D1*
X3895819Y3492064D1*
Y3467777D1*
X3901995Y3455704D1*
X3914069Y3443491D1*
X3926282Y3437454D1*
X3944392Y3431418D1*
X3974855D1*
X3993105Y3437454D1*
X4005178Y3443491D1*
X4017392Y3455704D1*
X4023428Y3467777D1*
Y3492064D1*
Y3392202D2*
X3932319D1*
X3914069Y3386166D1*
X3901996Y3373952D1*
X3895819Y3355702D1*
Y3343629D1*
X3901996Y3325379D1*
X3914069Y3313166D1*
X3932319Y3307129D1*
X4023428D1*
Y3225377D2*
X3895819D1*
X4023428Y3267913D2*
Y3182840D1*
X4247102Y3561743D2*
X4259175Y3567779D1*
X4271388Y3579993D1*
X4277425Y3592066D1*
Y3616352D1*
X4271388Y3628566D1*
X4259175Y3640639D1*
X4247102Y3646816D1*
X4228852Y3652852D1*
X4198388D1*
X4180279Y3646816D1*
X4168065Y3640639D1*
X4155992Y3628566D1*
X4149815Y3616353D1*
Y3592066D1*
X4155992Y3579993D1*
X4168065Y3567780D1*
X4180279Y3561743D1*
X4198388D1*
Y3592066D1*
X4277425Y3437454D2*
X4149815D1*
X4277425Y3522527D1*
X4149815D1*
X4277425Y3398239D2*
X4149815D1*
Y3355702D1*
X4155992Y3337452D1*
X4168065Y3325239D1*
X4180279Y3319202D1*
X4198388Y3313166D1*
X4228852D1*
X4247102Y3319202D1*
X4259175Y3325239D1*
X4271388Y3337452D1*
X4277425Y3355702D1*
Y3398239D1*
X4547305Y3636976D2*
X4419695D1*
Y3594439D1*
X4425872Y3576189D1*
X4437945Y3563976D1*
X4450159Y3557939D1*
X4468268Y3551903D1*
X4498732D1*
X4516982Y3557939D1*
X4529055Y3563976D1*
X4541268Y3576189D1*
X4547305Y3594439D1*
Y3636976D1*
Y3512687D2*
X4419695D1*
X4547305Y3388398D2*
X4419695Y3388399D1*
X4547305Y3473471D1*
X4419695Y3473472D1*
X4770982Y3561743D2*
X4783055Y3567779D1*
X4795268Y3579993D1*
X4801305Y3592066D1*
Y3616352D1*
X4795268Y3628566D1*
X4783055Y3640639D1*
X4770982Y3646816D1*
X4752732Y3652852D1*
X4722268D1*
X4704159Y3646816D1*
X4691945Y3640639D1*
X4679872Y3628566D1*
X4673695Y3616353D1*
Y3592066D1*
X4679872Y3579993D1*
X4691945Y3567780D1*
X4704159Y3561743D1*
X4801305Y3522527D2*
X4673695D1*
X4801305Y3437454D2*
X4716232Y3522527D1*
X4746695Y3492204D2*
X4673695Y3437454D1*
X4801305Y3361739D2*
X4795268Y3373952D1*
X4783055Y3386025D1*
X4770982Y3392202D1*
X4752732Y3398239D1*
X4722268D1*
X4704159Y3392202D1*
X4691945Y3386025D1*
X4679872Y3373952D1*
X4673695Y3361739D1*
Y3337452D1*
X4679872Y3325379D1*
X4691945Y3313166D1*
X4704159Y3307129D1*
X4722268Y3301093D1*
X4752732Y3301092D1*
X4770982Y3307129D1*
X4783055Y3313166D1*
X4795268Y3325379D1*
X4801305Y3337452D1*
Y3361739D1*
Y3261877D2*
X4710195D1*
X4691945Y3255840D1*
X4679872Y3243627D1*
X4673695Y3225377D1*
Y3213304D1*
X4679872Y3195054D1*
X4691945Y3182840D1*
X4710195Y3176804D1*
X4801305D1*
Y3095052D2*
X4673695D1*
X4801305Y3137588D2*
Y3052515D1*
X5024982Y3561743D2*
X5037055Y3567779D1*
X5049268Y3579993D1*
X5055305Y3592066D1*
Y3616352D1*
X5049268Y3628566D1*
X5037055Y3640639D1*
X5024982Y3646816D1*
X5006732Y3652852D1*
X4976268D1*
X4958159Y3646816D1*
X4945945Y3640639D1*
X4933872Y3628566D1*
X4927695Y3616353D1*
Y3592066D1*
X4933872Y3579993D1*
X4945945Y3567780D1*
X4958159Y3561743D1*
X5055305Y3522527D2*
X4927695D1*
X5055305Y3437454D2*
X4970232Y3522527D1*
X5000695Y3492204D2*
X4927695Y3437454D1*
X5055305Y3398239D2*
X4927695D1*
X5055305Y3273950D2*
X4927695D1*
X5055305Y3359023D1*
X4927695D1*
X2700250Y2370985D2*
D41*
X2693006Y2378313D1*
X2682056Y2381935D1*
X2667484D1*
X2656534Y2378313D1*
X2649206Y2370985D1*
Y2363741D1*
X2652912Y2356413D1*
X2656534Y2352791D1*
X2663778Y2349169D1*
X2685678Y2341841D1*
X2693006Y2338219D1*
X2696628Y2334513D1*
X2700250Y2327269D1*
Y2316319D1*
X2693006Y2309075D1*
X2682056Y2305369D1*
X2667484D1*
X2656534Y2309075D1*
X2649206Y2316319D1*
X2723779Y2381935D2*
Y2305369D1*
X2769208Y2381935D2*
X2761880Y2378313D1*
X2754636Y2370985D1*
X2750930Y2363741D1*
X2747308Y2352791D1*
Y2334513D1*
X2750930Y2323647D1*
X2754636Y2316319D1*
X2761880Y2309075D1*
X2769208Y2305369D1*
X2783780D1*
X2791024Y2309075D1*
X2798352Y2316319D1*
X2801974Y2323647D1*
X2805596Y2334513D1*
Y2352791D1*
X2801974Y2363741D1*
X2798352Y2370985D1*
X2791024Y2378313D1*
X2783780Y2381935D1*
X2769208D1*
X2903193Y2341841D2*
X2936043D1*
X2946909Y2345463D1*
X2950615Y2349169D1*
X2954237Y2356413D1*
Y2367363D1*
X2950615Y2374607D1*
X2946909Y2378313D1*
X2936043Y2381935D1*
X2903193D1*
Y2305369D1*
X2977767Y2381935D2*
Y2305369D1*
X3021482D1*
X3045012Y2381935D2*
Y2327269D1*
X3048634Y2316319D1*
X3055962Y2309075D1*
X3066912Y2305369D1*
X3074156D1*
X3085106Y2309075D1*
X3092434Y2316319D1*
X3096056Y2327269D1*
Y2381935D1*
X3174251Y2363741D2*
X3170629Y2370985D1*
X3163301Y2378313D1*
X3156057Y2381935D1*
X3141485D1*
X3134157Y2378313D1*
X3126913Y2370985D1*
X3123207Y2363741D1*
X3119585Y2352791D1*
Y2334513D1*
X3123207Y2323647D1*
X3126913Y2316319D1*
X3134157Y2309075D1*
X3141485Y2305369D1*
X3156057D1*
X3163301Y2309075D1*
X3170629Y2316319D1*
X3174251Y2323647D1*
Y2334513D1*
X3156057D1*
X3293748Y2381935D2*
X3286420Y2378313D1*
X3279176Y2370985D1*
X3275470Y2363741D1*
X3271848Y2352791D1*
Y2334513D1*
X3275470Y2323647D1*
X3279176Y2316319D1*
X3286420Y2309075D1*
X3293748Y2305369D1*
X3308320D1*
X3315564Y2309075D1*
X3322892Y2316319D1*
X3326514Y2323647D1*
X3330136Y2334513D1*
Y2352791D1*
X3326514Y2363741D1*
X3322892Y2370985D1*
X3315564Y2378313D1*
X3308320Y2381935D1*
X3293748D1*
X3353665Y2345463D2*
X3386431D1*
X3397381Y2349169D1*
X3401087Y2352791D1*
X3404709Y2360035D1*
Y2367363D1*
X3401087Y2374607D1*
X3397381Y2378313D1*
X3386431Y2381935D1*
X3353665D1*
Y2305369D1*
X3379187Y2345463D2*
X3404709Y2305369D1*
X3502306Y2381935D2*
Y2327269D1*
X3505928Y2316319D1*
X3513256Y2309075D1*
X3524206Y2305369D1*
X3531450D1*
X3542400Y2309075D1*
X3549728Y2316319D1*
X3553350Y2327269D1*
Y2381935D1*
X3576880Y2341841D2*
X3609730D1*
X3620595Y2345463D1*
X3624302Y2349169D1*
X3627923Y2356413D1*
Y2367363D1*
X3624302Y2374607D1*
X3620595Y2378313D1*
X3609730Y2381935D1*
X3576880D1*
Y2305369D1*
X3702497Y2370985D2*
X3695253Y2378313D1*
X3684303Y2381935D1*
X3669731D1*
X3658781Y2378313D1*
X3651453Y2370985D1*
Y2363741D1*
X3655159Y2356413D1*
X3658781Y2352791D1*
X3666025Y2349169D1*
X3687925Y2341841D1*
X3695253Y2338219D1*
X3698875Y2334513D1*
X3702497Y2327269D1*
Y2316319D1*
X3695253Y2309075D1*
X3684303Y2305369D1*
X3669731D1*
X3658781Y2309075D1*
X3651453Y2316319D1*
X3726026Y2381935D2*
Y2305369D1*
X3749556Y2381935D2*
Y2305369D1*
X3775077D1*
X3786027Y2309075D1*
X3793356Y2316319D1*
X3796977Y2323647D1*
X3800599Y2334513D1*
Y2352791D1*
X3796977Y2363741D1*
X3793356Y2370985D1*
X3786027Y2378313D1*
X3775077Y2381935D1*
X3749556D1*
X3871466D2*
X3824129D1*
Y2305369D1*
X3871466D1*
X3824129Y2345463D2*
X3853273D1*
X3969064Y2381935D2*
Y2305369D1*
X3994586D1*
X4005536Y2309075D1*
X4012864Y2316319D1*
X4016486Y2323647D1*
X4020108Y2334513D1*
Y2352791D1*
X4016486Y2363741D1*
X4012864Y2370985D1*
X4005536Y2378313D1*
X3994586Y2381935D1*
X3969064D1*
X4065537D2*
X4058209Y2378313D1*
X4050965Y2370985D1*
X4047259Y2363741D1*
X4043637Y2352791D1*
Y2334513D1*
X4047259Y2323647D1*
X4050965Y2316319D1*
X4058209Y2309075D1*
X4065537Y2305369D1*
X4080109D1*
X4087353Y2309075D1*
X4094681Y2316319D1*
X4098303Y2323647D1*
X4101925Y2334513D1*
Y2352791D1*
X4098303Y2363741D1*
X4094681Y2370985D1*
X4087353Y2378313D1*
X4080109Y2381935D1*
X4065537D1*
X4125454D2*
X4143732Y2305369D1*
X4161926Y2381935D1*
X4180120Y2305369D1*
X4198398Y2381935D1*
X4272971D2*
Y2305369D1*
X4221927Y2381935D1*
Y2305369D1*
X2783929Y2210740D2*
X2816695D1*
X2827645Y2214446D1*
X2831351Y2218068D1*
X2834973Y2225312D1*
Y2232640D1*
X2831351Y2239884D1*
X2827645Y2243590D1*
X2816695Y2247212D1*
X2783929D1*
Y2170646D1*
X2809451Y2210740D2*
X2834973Y2170646D1*
X2905840Y2247212D2*
X2858502D1*
Y2170646D1*
X2905840D1*
X2858502Y2210740D2*
X2887646D1*
X2984035Y2229018D2*
X2980413Y2236262D1*
X2973085Y2243590D1*
X2965841Y2247212D1*
X2951269D1*
X2943941Y2243590D1*
X2936697Y2236262D1*
X2932991Y2229018D1*
X2929369Y2218068D1*
Y2199790D1*
X2932991Y2188924D1*
X2936697Y2181596D1*
X2943941Y2174352D1*
X2951269Y2170646D1*
X2965841D1*
X2973085Y2174352D1*
X2980413Y2181596D1*
X2984035Y2188924D1*
X3054902Y2247212D2*
X3007565D1*
Y2170646D1*
X3054902D1*
X3007565Y2210740D2*
X3036708D1*
X3078432Y2207118D2*
X3111282D1*
X3122147Y2210740D1*
X3125854Y2214446D1*
X3129476Y2221690D1*
Y2232640D1*
X3125854Y2239884D1*
X3122147Y2243590D1*
X3111282Y2247212D1*
X3078432D1*
Y2170646D1*
X3178527Y2247212D2*
Y2170646D1*
X3153005Y2247212D2*
X3204049D1*
X3285950Y2170646D2*
X3256722Y2247212D1*
X3227578Y2170646D1*
X3238528Y2196168D2*
X3275000D1*
X3364145Y2229018D2*
X3360523Y2236262D1*
X3353195Y2243590D1*
X3345951Y2247212D1*
X3331380D1*
X3324051Y2243590D1*
X3316808Y2236262D1*
X3313101Y2229018D1*
X3309480Y2218068D1*
Y2199790D1*
X3313101Y2188924D1*
X3316808Y2181596D1*
X3324051Y2174352D1*
X3331380Y2170646D1*
X3345951D1*
X3353195Y2174352D1*
X3360523Y2181596D1*
X3364145Y2188924D1*
X3387675Y2247212D2*
Y2170646D1*
X3431390D1*
X3502258Y2247212D2*
X3454920D1*
Y2170646D1*
X3502258D1*
X3454920Y2210740D2*
X3484064D1*
X3625377Y2247212D2*
Y2170646D1*
X3599855Y2247212D2*
X3650899D1*
X3674428D2*
Y2170646D1*
X3725472Y2247212D2*
Y2170646D1*
X3674428Y2210740D2*
X3725472D1*
X3749001Y2247212D2*
Y2170646D1*
X3823575Y2236262D2*
X3816331Y2243590D1*
X3805381Y2247212D1*
X3790809D1*
X3779859Y2243590D1*
X3772531Y2236262D1*
Y2229018D1*
X3776237Y2221690D1*
X3779859Y2218068D1*
X3787103Y2214446D1*
X3809003Y2207118D1*
X3816331Y2203496D1*
X3819953Y2199790D1*
X3823575Y2192546D1*
Y2181596D1*
X3816331Y2174352D1*
X3805381Y2170646D1*
X3790809D1*
X3779859Y2174352D1*
X3772531Y2181596D1*
X3972216Y2236262D2*
X3964972Y2243590D1*
X3954022Y2247212D1*
X3939450D1*
X3928500Y2243590D1*
X3921172Y2236262D1*
Y2229018D1*
X3924878Y2221690D1*
X3928500Y2218068D1*
X3935744Y2214446D1*
X3957644Y2207118D1*
X3964972Y2203496D1*
X3968594Y2199790D1*
X3972216Y2192546D1*
Y2181596D1*
X3964972Y2174352D1*
X3954022Y2170646D1*
X3939450D1*
X3928500Y2174352D1*
X3921172Y2181596D1*
X3995745Y2247212D2*
Y2170646D1*
X4019275Y2247212D2*
Y2170646D1*
X4044797D1*
X4055747Y2174352D1*
X4063075Y2181596D1*
X4066697Y2188924D1*
X4070318Y2199790D1*
Y2218068D1*
X4066697Y2229018D1*
X4063075Y2236262D1*
X4055747Y2243590D1*
X4044797Y2247212D1*
X4019275D1*
X4141186D2*
X4093848D1*
Y2170646D1*
X4141186D1*
X4093848Y2210740D2*
X4122992D1*
M02*
